<?xml version="1.0" standalone="no"?>
 <!DOCTYPE svg PUBLIC "-//W3C//DTD SVG 1.1//EN" 
 "http://www.w3.org/Graphics/SVG/1.1/DTD/svg11.dtd"> 
<svg
  xmlns:svg="http://www.w3.org/2000/svg"
  xmlns="http://www.w3.org/2000/svg"
  xmlns:xlink="http://www.w3.org/1999/xlink"
  version="1.1"
  width="29.700220cm" height="21.000720cm" viewBox="0 0 116930 82680">
<title>SVG Picture created as project_A.svg date 2022/08/04 11:23:14 </title>
  <desc>Picture generated by Eeschema-SVG </desc>
<g style="fill:#000000; fill-opacity:1.000000;stroke:#000000; stroke-opacity:1.000000;
stroke-linecap:round; stroke-linejoin:round;"
 transform="translate(0 0) scale(1 1)">
</g>
<g style="fill:#000000; fill-opacity:0.0; 
stroke:#000000; stroke-width:0.000000; stroke-opacity:1; 
stroke-linecap:round; stroke-linejoin:round;">
</g>
<g style="fill:#000000; fill-opacity:0.0; 
stroke:#000000; stroke-width:60.000000; stroke-opacity:1; 
stroke-linecap:round; stroke-linejoin:round;">
<rect x="69685.905512" y="65357.165354" width="42519.685039" height="12598.425197" rx="0.000000" />
<rect x="3937.007874" y="3937.007874" width="109055.984252" height="74805.984252" rx="0.000000" />
<rect x="4724.409449" y="4724.409449" width="107481.181102" height="73231.181102" rx="0.000000" />
<path d="M23622 4724
L23622 3937
" />
<path d="M43307 4724
L43307 3937
" />
<path d="M62992 4724
L62992 3937
" />
<path d="M82677 4724
L82677 3937
" />
<path d="M102362 4724
L102362 3937
" />
<text x="13779.527559" y="4586.614173"
textLength="617.440945" font-size="682.401575" lengthAdjust="spacingAndGlyphs"
text-anchor="start" opacity="0">1</text>
<g class="stroked-text"><desc>1</desc>
<path d="M14199 4562
L13907 4562
" />
<path d="M14053 4562
L14053 4050
L14004 4123
L13955 4172
L13907 4196
" />
</g><text x="33464.566929" y="4586.614173"
textLength="547.440945" font-size="682.401575" lengthAdjust="spacingAndGlyphs"
text-anchor="start" opacity="0">2</text>
<g class="stroked-text"><desc>2</desc>
<path d="M33592 4099
L33616 4074
L33665 4050
L33787 4050
L33835 4074
L33860 4099
L33884 4147
L33884 4196
L33860 4269
L33567 4562
L33884 4562
" />
</g><text x="53149.606299" y="4586.614173"
textLength="547.440945" font-size="682.401575" lengthAdjust="spacingAndGlyphs"
text-anchor="start" opacity="0">3</text>
<g class="stroked-text"><desc>3</desc>
<path d="M53252 4050
L53569 4050
L53398 4245
L53472 4245
L53520 4269
L53545 4294
L53569 4342
L53569 4464
L53545 4513
L53520 4537
L53472 4562
L53325 4562
L53277 4537
L53252 4513
" />
</g><text x="72834.645669" y="4586.614173"
textLength="547.440945" font-size="682.401575" lengthAdjust="spacingAndGlyphs"
text-anchor="start" opacity="0">4</text>
<g class="stroked-text"><desc>4</desc>
<path d="M73205 4221
L73205 4562
" />
<path d="M73083 4026
L72962 4391
L73278 4391
" />
</g><text x="92519.685039" y="4586.614173"
textLength="547.440945" font-size="682.401575" lengthAdjust="spacingAndGlyphs"
text-anchor="start" opacity="0">5</text>
<g class="stroked-text"><desc>5</desc>
<path d="M92915 4050
L92671 4050
L92647 4294
L92671 4269
L92720 4245
L92842 4245
L92890 4269
L92915 4294
L92939 4342
L92939 4464
L92915 4513
L92890 4537
L92842 4562
L92720 4562
L92671 4537
L92647 4513
" />
</g><text x="112204.724409" y="4586.614173"
textLength="547.440945" font-size="682.401575" lengthAdjust="spacingAndGlyphs"
text-anchor="start" opacity="0">6</text>
<g class="stroked-text"><desc>6</desc>
<path d="M112575 4050
L112478 4050
L112429 4074
L112405 4099
L112356 4172
L112332 4269
L112332 4464
L112356 4513
L112380 4537
L112429 4562
L112527 4562
L112575 4537
L112600 4513
L112624 4464
L112624 4342
L112600 4294
L112575 4269
L112527 4245
L112429 4245
L112380 4269
L112356 4294
L112332 4342
" />
</g><path d="M23622 77955
L23622 78742
" />
<path d="M43307 77955
L43307 78742
" />
<path d="M62992 77955
L62992 78742
" />
<path d="M82677 77955
L82677 78742
" />
<path d="M102362 77955
L102362 78742
" />
<text x="13779.527559" y="78605.196850"
textLength="547.440945" font-size="682.401575" lengthAdjust="spacingAndGlyphs"
text-anchor="start" opacity="0">1</text>
<g class="stroked-text"><desc>1</desc>
<path d="M14199 78580
L13907 78580
" />
<path d="M14053 78580
L14053 78068
L14004 78142
L13955 78190
L13907 78215
" />
</g><text x="33464.566929" y="78605.196850"
textLength="547.440945" font-size="682.401575" lengthAdjust="spacingAndGlyphs"
text-anchor="start" opacity="0">2</text>
<g class="stroked-text"><desc>2</desc>
<path d="M33592 78117
L33616 78093
L33665 78068
L33787 78068
L33835 78093
L33860 78117
L33884 78166
L33884 78215
L33860 78288
L33567 78580
L33884 78580
" />
</g><text x="53149.606299" y="78605.196850"
textLength="547.440945" font-size="682.401575" lengthAdjust="spacingAndGlyphs"
text-anchor="start" opacity="0">3</text>
<g class="stroked-text"><desc>3</desc>
<path d="M53252 78068
L53569 78068
L53398 78263
L53472 78263
L53520 78288
L53545 78312
L53569 78361
L53569 78483
L53545 78532
L53520 78556
L53472 78580
L53325 78580
L53277 78556
L53252 78532
" />
</g><text x="72834.645669" y="78605.196850"
textLength="547.440945" font-size="682.401575" lengthAdjust="spacingAndGlyphs"
text-anchor="start" opacity="0">4</text>
<g class="stroked-text"><desc>4</desc>
<path d="M73205 78239
L73205 78580
" />
<path d="M73083 78044
L72962 78410
L73278 78410
" />
</g><text x="92519.685039" y="78605.196850"
textLength="547.440945" font-size="682.401575" lengthAdjust="spacingAndGlyphs"
text-anchor="start" opacity="0">5</text>
<g class="stroked-text"><desc>5</desc>
<path d="M92915 78068
L92671 78068
L92647 78312
L92671 78288
L92720 78263
L92842 78263
L92890 78288
L92915 78312
L92939 78361
L92939 78483
L92915 78532
L92890 78556
L92842 78580
L92720 78580
L92671 78556
L92647 78532
" />
</g><text x="112204.724409" y="78605.196850"
textLength="547.440945" font-size="682.401575" lengthAdjust="spacingAndGlyphs"
text-anchor="start" opacity="0">6</text>
<g class="stroked-text"><desc>6</desc>
<path d="M112575 78068
L112478 78068
L112429 78093
L112405 78117
L112356 78190
L112332 78288
L112332 78483
L112356 78532
L112380 78556
L112429 78580
L112527 78580
L112575 78556
L112600 78532
L112624 78483
L112624 78361
L112600 78312
L112575 78288
L112527 78263
L112429 78263
L112380 78288
L112356 78312
L112332 78361
" />
</g><path d="M3937 23622
L4724 23622
" />
<path d="M3937 43307
L4724 43307
" />
<path d="M3937 62992
L4724 62992
" />
<text x="4330.708661" y="14035.433071"
textLength="498.700787" font-size="682.401575" lengthAdjust="spacingAndGlyphs"
text-anchor="middle" opacity="0">A</text>
<g class="stroked-text"><desc>A</desc>
<path d="M4208 13864
L4452 13864
" />
<path d="M4160 14011
L4330 13499
L4501 14011
" />
</g><text x="4330.708661" y="33720.472441"
textLength="571.811024" font-size="682.401575" lengthAdjust="spacingAndGlyphs"
text-anchor="middle" opacity="0">B</text>
<g class="stroked-text"><desc>B</desc>
<path d="M4367 33427
L4440 33452
L4464 33476
L4489 33525
L4489 33598
L4464 33647
L4440 33671
L4391 33696
L4196 33696
L4196 33184
L4367 33184
L4415 33208
L4440 33233
L4464 33281
L4464 33330
L4440 33379
L4415 33403
L4367 33427
L4196 33427
" />
</g><text x="4330.708661" y="53405.511811"
textLength="571.811024" font-size="682.401575" lengthAdjust="spacingAndGlyphs"
text-anchor="middle" opacity="0">C</text>
<g class="stroked-text"><desc>C</desc>
<path d="M4489 53332
L4464 53356
L4391 53381
L4342 53381
L4269 53356
L4221 53307
L4196 53259
L4172 53161
L4172 53088
L4196 52991
L4221 52942
L4269 52893
L4342 52869
L4391 52869
L4464 52893
L4489 52918
" />
</g><text x="4330.708661" y="73090.551181"
textLength="571.811024" font-size="682.401575" lengthAdjust="spacingAndGlyphs"
text-anchor="middle" opacity="0">D</text>
<g class="stroked-text"><desc>D</desc>
<path d="M4196 73066
L4196 72554
L4318 72554
L4391 72578
L4440 72627
L4464 72676
L4489 72773
L4489 72846
L4464 72944
L4440 72993
L4391 73041
L4318 73066
L4196 73066
" />
</g><path d="M112992 23622
L112205 23622
" />
<path d="M112992 43307
L112205 43307
" />
<path d="M112992 62992
L112205 62992
" />
<text x="112599.291339" y="14035.433071"
textLength="498.700787" font-size="682.401575" lengthAdjust="spacingAndGlyphs"
text-anchor="middle" opacity="0">A</text>
<g class="stroked-text"><desc>A</desc>
<path d="M112477 13864
L112721 13864
" />
<path d="M112428 14011
L112599 13499
L112769 14011
" />
</g><text x="112599.291339" y="33720.472441"
textLength="571.811024" font-size="682.401575" lengthAdjust="spacingAndGlyphs"
text-anchor="middle" opacity="0">B</text>
<g class="stroked-text"><desc>B</desc>
<path d="M112635 33427
L112708 33452
L112733 33476
L112757 33525
L112757 33598
L112733 33647
L112708 33671
L112660 33696
L112465 33696
L112465 33184
L112635 33184
L112684 33208
L112708 33233
L112733 33281
L112733 33330
L112708 33379
L112684 33403
L112635 33427
L112465 33427
" />
</g><text x="112599.291339" y="53405.511811"
textLength="571.811024" font-size="682.401575" lengthAdjust="spacingAndGlyphs"
text-anchor="middle" opacity="0">C</text>
<g class="stroked-text"><desc>C</desc>
<path d="M112757 53332
L112733 53356
L112660 53381
L112611 53381
L112538 53356
L112489 53307
L112465 53259
L112440 53161
L112440 53088
L112465 52991
L112489 52942
L112538 52893
L112611 52869
L112660 52869
L112733 52893
L112757 52918
" />
</g><text x="112599.291339" y="73090.551181"
textLength="571.811024" font-size="682.401575" lengthAdjust="spacingAndGlyphs"
text-anchor="middle" opacity="0">D</text>
<g class="stroked-text"><desc>D</desc>
<path d="M112465 73066
L112465 72554
L112587 72554
L112660 72578
L112708 72627
L112733 72676
L112757 72773
L112757 72846
L112733 72944
L112708 72993
L112660 73041
L112587 73066
L112465 73066
" />
</g><text x="78741.023622" y="76321.732283"
textLength="2759.645669" font-size="787.401575" lengthAdjust="spacingAndGlyphs"
text-anchor="start" opacity="0">Date: </text>
<g class="stroked-text"><desc>Date: </desc>
<path d="M78911 76293
L78911 75703
L79052 75703
L79136 75731
L79192 75787
L79220 75843
L79249 75956
L79249 76040
L79220 76152
L79192 76209
L79136 76265
L79052 76293
L78911 76293
" />
<path d="M79755 76293
L79755 75984
L79727 75928
L79670 75899
L79558 75899
L79502 75928
" />
<path d="M79755 76265
L79699 76293
L79558 76293
L79502 76265
L79474 76209
L79474 76152
L79502 76096
L79558 76068
L79699 76068
L79755 76040
" />
<path d="M79952 75899
L80177 75899
" />
<path d="M80036 75703
L80036 76209
L80064 76265
L80120 76293
L80177 76293
" />
<path d="M80598 76265
L80542 76293
L80430 76293
L80373 76265
L80345 76209
L80345 75984
L80373 75928
L80430 75899
L80542 75899
L80598 75928
L80627 75984
L80627 76040
L80345 76096
" />
<path d="M80880 76237
L80908 76265
L80880 76293
L80852 76265
L80880 76237
L80880 76293
" />
<path d="M80880 75928
L80908 75956
L80880 75984
L80852 75956
L80880 75928
L80880 75984
" />
</g><path d="M69685 76577
L112205 76577
" />
<text x="70079.606299" y="77424.094488"
textLength="16848.543307" font-size="787.401575" lengthAdjust="spacingAndGlyphs"
text-anchor="start" opacity="0">KiCad E.D.A.  eeschema (6.0.7-1)-1</text>
<g class="stroked-text"><desc>KiCad E.D.A.  eeschema (6.0.7-1)-1</desc>
<path d="M70250 77395
L70250 76805
" />
<path d="M70587 77395
L70334 77058
" />
<path d="M70587 76805
L70250 77142
" />
<path d="M70840 77395
L70840 77002
" />
<path d="M70840 76805
L70812 76833
L70840 76861
L70868 76833
L70840 76805
L70840 76861
" />
<path d="M71459 77339
L71431 77367
L71346 77395
L71290 77395
L71206 77367
L71150 77311
L71121 77255
L71093 77142
L71093 77058
L71121 76946
L71150 76889
L71206 76833
L71290 76805
L71346 76805
L71431 76833
L71459 76861
" />
<path d="M71965 77395
L71965 77086
L71937 77030
L71881 77002
L71768 77002
L71712 77030
" />
<path d="M71965 77367
L71909 77395
L71768 77395
L71712 77367
L71684 77311
L71684 77255
L71712 77199
L71768 77170
L71909 77170
L71965 77142
" />
<path d="M72499 77395
L72499 76805
" />
<path d="M72499 77367
L72443 77395
L72331 77395
L72274 77367
L72246 77339
L72218 77283
L72218 77114
L72246 77058
L72274 77030
L72331 77002
L72443 77002
L72499 77030
" />
<path d="M73231 77086
L73427 77086
" />
<path d="M73512 77395
L73231 77395
L73231 76805
L73512 76805
" />
<path d="M73765 77339
L73793 77367
L73765 77395
L73737 77367
L73765 77339
L73765 77395
" />
<path d="M74046 77395
L74046 76805
L74187 76805
L74271 76833
L74327 76889
L74355 76946
L74384 77058
L74384 77142
L74355 77255
L74327 77311
L74271 77367
L74187 77395
L74046 77395
" />
<path d="M74637 77339
L74665 77367
L74637 77395
L74609 77367
L74637 77339
L74637 77395
" />
<path d="M74890 77227
L75171 77227
" />
<path d="M74834 77395
L75030 76805
L75227 77395
" />
<path d="M75424 77339
L75452 77367
L75424 77395
L75396 77367
L75424 77339
L75424 77395
" />
<path d="M76830 77367
L76774 77395
L76661 77395
L76605 77367
L76577 77311
L76577 77086
L76605 77030
L76661 77002
L76774 77002
L76830 77030
L76858 77086
L76858 77142
L76577 77199
" />
<path d="M77336 77367
L77280 77395
L77168 77395
L77111 77367
L77083 77311
L77083 77086
L77111 77030
L77168 77002
L77280 77002
L77336 77030
L77364 77086
L77364 77142
L77083 77199
" />
<path d="M77589 77367
L77646 77395
L77758 77395
L77814 77367
L77842 77311
L77842 77283
L77814 77227
L77758 77199
L77674 77199
L77618 77170
L77589 77114
L77589 77086
L77618 77030
L77674 77002
L77758 77002
L77814 77030
" />
<path d="M78349 77367
L78292 77395
L78180 77395
L78124 77367
L78096 77339
L78067 77283
L78067 77114
L78096 77058
L78124 77030
L78180 77002
L78292 77002
L78349 77030
" />
<path d="M78602 77395
L78602 76805
" />
<path d="M78855 77395
L78855 77086
L78827 77030
L78771 77002
L78686 77002
L78630 77030
L78602 77058
" />
<path d="M79361 77367
L79305 77395
L79192 77395
L79136 77367
L79108 77311
L79108 77086
L79136 77030
L79192 77002
L79305 77002
L79361 77030
L79389 77086
L79389 77142
L79108 77199
" />
<path d="M79642 77395
L79642 77002
" />
<path d="M79642 77058
L79670 77030
L79727 77002
L79811 77002
L79867 77030
L79895 77086
L79895 77395
" />
<path d="M79895 77086
L79923 77030
L79980 77002
L80064 77002
L80120 77030
L80148 77086
L80148 77395
" />
<path d="M80683 77395
L80683 77086
L80655 77030
L80598 77002
L80486 77002
L80430 77030
" />
<path d="M80683 77367
L80627 77395
L80486 77395
L80430 77367
L80402 77311
L80402 77255
L80430 77199
L80486 77170
L80627 77170
L80683 77142
" />
<path d="M81583 77620
L81555 77592
L81498 77508
L81470 77452
L81442 77367
L81414 77227
L81414 77114
L81442 76974
L81470 76889
L81498 76833
L81555 76749
L81583 76721
" />
<path d="M82061 76805
L81948 76805
L81892 76833
L81864 76861
L81808 76946
L81780 77058
L81780 77283
L81808 77339
L81836 77367
L81892 77395
L82004 77395
L82061 77367
L82089 77339
L82117 77283
L82117 77142
L82089 77086
L82061 77058
L82004 77030
L81892 77030
L81836 77058
L81808 77086
L81780 77142
" />
<path d="M82370 77339
L82398 77367
L82370 77395
L82342 77367
L82370 77339
L82370 77395
" />
<path d="M82764 76805
L82820 76805
L82876 76833
L82904 76861
L82932 76917
L82961 77030
L82961 77170
L82932 77283
L82904 77339
L82876 77367
L82820 77395
L82764 77395
L82708 77367
L82679 77339
L82651 77283
L82623 77170
L82623 77030
L82651 76917
L82679 76861
L82708 76833
L82764 76805
" />
<path d="M83214 77339
L83242 77367
L83214 77395
L83186 77367
L83214 77339
L83214 77395
" />
<path d="M83439 76805
L83832 76805
L83579 77395
" />
<path d="M84057 77170
L84507 77170
" />
<path d="M85098 77395
L84760 77395
" />
<path d="M84929 77395
L84929 76805
L84873 76889
L84817 76946
L84760 76974
" />
<path d="M85295 77620
L85323 77592
L85379 77508
L85407 77452
L85435 77367
L85463 77227
L85463 77114
L85435 76974
L85407 76889
L85379 76833
L85323 76749
L85295 76721
" />
<path d="M85745 77170
L86195 77170
" />
<path d="M86785 77395
L86448 77395
" />
<path d="M86616 77395
L86616 76805
L86560 76889
L86504 76946
L86448 76974
" />
</g><path d="M69685 75396
L112205 75396
" />
</g>
<g style="fill:#000000; fill-opacity:0.0; 
stroke:#000000; stroke-width:118.110236; stroke-opacity:1; 
stroke-linecap:round; stroke-linejoin:round;">
<text x="103544.173228" y="76321.732283"
textLength="2337.834646" font-size="787.401575" lengthAdjust="spacingAndGlyphs"
text-anchor="start" opacity="0">Rev: </text>
<g class="stroked-text"><desc>Rev: </desc>
<path d="M104098 76293
L103902 76012
" />
<path d="M103761 76293
L103761 75703
L103986 75703
L104042 75731
L104070 75759
L104098 75815
L104098 75899
L104070 75956
L104042 75984
L103986 76012
L103761 76012
" />
<path d="M104577 76265
L104520 76293
L104408 76293
L104352 76265
L104323 76209
L104323 75984
L104352 75928
L104408 75899
L104520 75899
L104577 75928
L104605 75984
L104605 76040
L104323 76096
" />
<path d="M104802 75899
L104942 76293
L105083 75899
" />
<path d="M105308 76237
L105336 76265
L105308 76293
L105280 76265
L105308 76237
L105308 76293
" />
<path d="M105308 75928
L105336 75956
L105308 75984
L105280 75956
L105308 75928
L105308 75984
" />
</g></g>
<g style="fill:#000000; fill-opacity:0.0; 
stroke:#000000; stroke-width:60.000000; stroke-opacity:1; 
stroke-linecap:round; stroke-linejoin:round;">
<text x="70079.606299" y="76321.732283"
textLength="3781.220472" font-size="787.401575" lengthAdjust="spacingAndGlyphs"
text-anchor="start" opacity="0">Size: A4</text>
<g class="stroked-text"><desc>Size: A4</desc>
<path d="M70222 76265
L70306 76293
L70447 76293
L70503 76265
L70531 76237
L70559 76181
L70559 76124
L70531 76068
L70503 76040
L70447 76012
L70334 75984
L70278 75956
L70250 75928
L70222 75871
L70222 75815
L70250 75759
L70278 75731
L70334 75703
L70475 75703
L70559 75731
" />
<path d="M70812 76293
L70812 75899
" />
<path d="M70812 75703
L70784 75731
L70812 75759
L70840 75731
L70812 75703
L70812 75759
" />
<path d="M71037 75899
L71346 75899
L71037 76293
L71346 76293
" />
<path d="M71796 76265
L71740 76293
L71628 76293
L71571 76265
L71543 76209
L71543 75984
L71571 75928
L71628 75899
L71740 75899
L71796 75928
L71825 75984
L71825 76040
L71543 76096
" />
<path d="M72078 76237
L72106 76265
L72078 76293
L72049 76265
L72078 76237
L72078 76293
" />
<path d="M72078 75928
L72106 75956
L72078 75984
L72049 75956
L72078 75928
L72078 75984
" />
<path d="M72781 76124
L73062 76124
" />
<path d="M72724 76293
L72921 75703
L73118 76293
" />
<path d="M73568 75899
L73568 76293
" />
<path d="M73427 75674
L73287 76096
L73652 76096
" />
</g><text x="103544.173228" y="77424.094488"
textLength="3350.196850" font-size="787.401575" lengthAdjust="spacingAndGlyphs"
text-anchor="start" opacity="0">Id: 1/1</text>
<g class="stroked-text"><desc>Id: 1/1</desc>
<path d="M103714 77395
L103714 76805
" />
<path d="M104249 77395
L104249 76805
" />
<path d="M104249 77367
L104192 77395
L104080 77395
L104024 77367
L103995 77339
L103967 77283
L103967 77114
L103995 77058
L104024 77030
L104080 77002
L104192 77002
L104249 77030
" />
<path d="M104530 77339
L104558 77367
L104530 77395
L104502 77367
L104530 77339
L104530 77395
" />
<path d="M104530 77030
L104558 77058
L104530 77086
L104502 77058
L104530 77030
L104530 77086
" />
<path d="M105570 77395
L105233 77395
" />
<path d="M105402 77395
L105402 76805
L105345 76889
L105289 76946
L105233 76974
" />
<path d="M106245 76777
L105739 77536
" />
<path d="M106751 77395
L106414 77395
" />
<path d="M106583 77395
L106583 76805
L106526 76889
L106470 76946
L106414 76974
" />
</g><path d="M69685 73821
L112205 73821
" />
</g>
<g style="fill:#000000; fill-opacity:0.0; 
stroke:#000000; stroke-width:157.480315; stroke-opacity:1; 
stroke-linecap:round; stroke-linejoin:round;">
<text x="70079.606299" y="74924.094488"
textLength="3705.511811" font-size="1049.842520" lengthAdjust="spacingAndGlyphs"
text-anchor="start" opacity="0">Title: </text>
<g class="stroked-text"><desc>Title: </desc>
<path d="M70360 74099
L70810 74099
" />
<path d="M70486 74886
L70585 74099
" />
<path d="M70974 74886
L71039 74361
" />
<path d="M71072 74099
L71030 74136
L71063 74174
L71105 74136
L71072 74099
L71063 74174
" />
<path d="M71302 74361
L71602 74361
" />
<path d="M71447 74099
L71363 74774
L71391 74849
L71461 74886
L71536 74886
" />
<path d="M71911 74886
L71841 74849
L71812 74774
L71897 74099
" />
<path d="M72516 74849
L72436 74886
L72286 74886
L72216 74849
L72187 74774
L72225 74474
L72272 74399
L72352 74361
L72501 74361
L72572 74399
L72600 74474
L72591 74549
L72206 74624
" />
<path d="M72895 74811
L72928 74849
L72886 74886
L72853 74849
L72895 74811
L72886 74886
" />
<path d="M72947 74399
L72980 74436
L72937 74474
L72905 74436
L72947 74399
L72937 74474
" />
</g></g>
<g style="fill:#000000; fill-opacity:0.0; 
stroke:#000000; stroke-width:60.000000; stroke-opacity:1; 
stroke-linecap:round; stroke-linejoin:round;">
<text x="70079.606299" y="73408.346457"
textLength="11143.976378" font-size="787.401575" lengthAdjust="spacingAndGlyphs"
text-anchor="start" opacity="0">File: project_A.kicad_sch</text>
<g class="stroked-text"><desc>File: project_A.kicad_sch</desc>
<path d="M70447 73070
L70250 73070
" />
<path d="M70250 73380
L70250 72789
L70531 72789
" />
<path d="M70756 73380
L70756 72986
" />
<path d="M70756 72789
L70728 72817
L70756 72845
L70784 72817
L70756 72789
L70756 72845
" />
<path d="M71121 73380
L71065 73352
L71037 73295
L71037 72789
" />
<path d="M71571 73352
L71515 73380
L71403 73380
L71346 73352
L71318 73295
L71318 73070
L71346 73014
L71403 72986
L71515 72986
L71571 73014
L71600 73070
L71600 73127
L71318 73183
" />
<path d="M71853 73323
L71881 73352
L71853 73380
L71825 73352
L71853 73323
L71853 73380
" />
<path d="M71853 73014
L71881 73042
L71853 73070
L71825 73042
L71853 73014
L71853 73070
" />
<path d="M72584 72986
L72584 73577
" />
<path d="M72584 73014
L72640 72986
L72752 72986
L72809 73014
L72837 73042
L72865 73098
L72865 73267
L72837 73323
L72809 73352
L72752 73380
L72640 73380
L72584 73352
" />
<path d="M73118 73380
L73118 72986
" />
<path d="M73118 73098
L73146 73042
L73174 73014
L73231 72986
L73287 72986
" />
<path d="M73568 73380
L73512 73352
L73484 73323
L73456 73267
L73456 73098
L73484 73042
L73512 73014
L73568 72986
L73652 72986
L73709 73014
L73737 73042
L73765 73098
L73765 73267
L73737 73323
L73709 73352
L73652 73380
L73568 73380
" />
<path d="M74018 72986
L74018 73492
L73990 73548
L73934 73577
L73905 73577
" />
<path d="M74018 72789
L73990 72817
L74018 72845
L74046 72817
L74018 72789
L74018 72845
" />
<path d="M74524 73352
L74468 73380
L74355 73380
L74299 73352
L74271 73295
L74271 73070
L74299 73014
L74355 72986
L74468 72986
L74524 73014
L74552 73070
L74552 73127
L74271 73183
" />
<path d="M75058 73352
L75002 73380
L74890 73380
L74834 73352
L74805 73323
L74777 73267
L74777 73098
L74805 73042
L74834 73014
L74890 72986
L75002 72986
L75058 73014
" />
<path d="M75227 72986
L75452 72986
" />
<path d="M75312 72789
L75312 73295
L75340 73352
L75396 73380
L75452 73380
" />
<path d="M75508 73436
L75958 73436
" />
<path d="M76071 73211
L76352 73211
" />
<path d="M76015 73380
L76211 72789
L76408 73380
" />
<path d="M76605 73323
L76633 73352
L76605 73380
L76577 73352
L76605 73323
L76605 73380
" />
<path d="M76886 73380
L76886 72789
" />
<path d="M76943 73155
L77111 73380
" />
<path d="M77111 72986
L76886 73211
" />
<path d="M77364 73380
L77364 72986
" />
<path d="M77364 72789
L77336 72817
L77364 72845
L77393 72817
L77364 72789
L77364 72845
" />
<path d="M77899 73352
L77842 73380
L77730 73380
L77674 73352
L77646 73323
L77618 73267
L77618 73098
L77646 73042
L77674 73014
L77730 72986
L77842 72986
L77899 73014
" />
<path d="M78405 73380
L78405 73070
L78377 73014
L78321 72986
L78208 72986
L78152 73014
" />
<path d="M78405 73352
L78349 73380
L78208 73380
L78152 73352
L78124 73295
L78124 73239
L78152 73183
L78208 73155
L78349 73155
L78405 73127
" />
<path d="M78939 73380
L78939 72789
" />
<path d="M78939 73352
L78883 73380
L78771 73380
L78714 73352
L78686 73323
L78658 73267
L78658 73098
L78686 73042
L78714 73014
L78771 72986
L78883 72986
L78939 73014
" />
<path d="M79080 73436
L79530 73436
" />
<path d="M79642 73352
L79699 73380
L79811 73380
L79867 73352
L79895 73295
L79895 73267
L79867 73211
L79811 73183
L79727 73183
L79670 73155
L79642 73098
L79642 73070
L79670 73014
L79727 72986
L79811 72986
L79867 73014
" />
<path d="M80402 73352
L80345 73380
L80233 73380
L80177 73352
L80148 73323
L80120 73267
L80120 73098
L80148 73042
L80177 73014
L80233 72986
L80345 72986
L80402 73014
" />
<path d="M80655 73380
L80655 72789
" />
<path d="M80908 73380
L80908 73070
L80880 73014
L80823 72986
L80739 72986
L80683 73014
L80655 73042
" />
</g><path d="M69685 71459
L112205 71459
" />
<text x="70079.606299" y="72345.354331"
textLength="3856.417323" font-size="787.401575" lengthAdjust="spacingAndGlyphs"
text-anchor="start" opacity="0">Sheet: /</text>
<g class="stroked-text"><desc>Sheet: /</desc>
<path d="M70222 72289
L70306 72317
L70447 72317
L70503 72289
L70531 72260
L70559 72204
L70559 72148
L70531 72092
L70503 72064
L70447 72035
L70334 72007
L70278 71979
L70250 71951
L70222 71895
L70222 71839
L70250 71782
L70278 71754
L70334 71726
L70475 71726
L70559 71754
" />
<path d="M70812 72317
L70812 71726
" />
<path d="M71065 72317
L71065 72007
L71037 71951
L70981 71923
L70897 71923
L70840 71951
L70812 71979
" />
<path d="M71571 72289
L71515 72317
L71403 72317
L71346 72289
L71318 72232
L71318 72007
L71346 71951
L71403 71923
L71515 71923
L71571 71951
L71600 72007
L71600 72064
L71318 72120
" />
<path d="M72078 72289
L72021 72317
L71909 72317
L71853 72289
L71825 72232
L71825 72007
L71853 71951
L71909 71923
L72021 71923
L72078 71951
L72106 72007
L72106 72064
L71825 72120
" />
<path d="M72274 71923
L72499 71923
" />
<path d="M72359 71726
L72359 72232
L72387 72289
L72443 72317
L72499 72317
" />
<path d="M72696 72260
L72724 72289
L72696 72317
L72668 72289
L72696 72260
L72696 72317
" />
<path d="M72696 71951
L72724 71979
L72696 72007
L72668 71979
L72696 71951
L72696 72007
" />
<path d="M73849 71698
L73343 72457
" />
</g></g>
<g style="fill:#000000; fill-opacity:0.0; 
stroke:#000000; stroke-width:118.110236; stroke-opacity:1; 
stroke-linecap:round; stroke-linejoin:round;">
<text x="70079.606299" y="71164.251969"
textLength="60.000000" font-size="787.401575" lengthAdjust="spacingAndGlyphs"
text-anchor="start" opacity="0"></text>
<g class="stroked-text"><desc></desc>
</g></g>
<g style="fill:#000000; fill-opacity:0.0; 
stroke:#000000; stroke-width:60.000000; stroke-opacity:1; 
stroke-linecap:round; stroke-linejoin:round;">
<text x="70079.606299" y="69983.149606"
textLength="118.110236" font-size="787.401575" lengthAdjust="spacingAndGlyphs"
text-anchor="start" opacity="0"></text>
<g class="stroked-text"><desc></desc>
</g><text x="70079.606299" y="68802.047244"
textLength="60.000000" font-size="787.401575" lengthAdjust="spacingAndGlyphs"
text-anchor="start" opacity="0"></text>
<g class="stroked-text"><desc></desc>
</g><text x="70079.606299" y="67620.944882"
textLength="60.000000" font-size="787.401575" lengthAdjust="spacingAndGlyphs"
text-anchor="start" opacity="0"></text>
<g class="stroked-text"><desc></desc>
</g><text x="70079.606299" y="66439.842520"
textLength="60.000000" font-size="787.401575" lengthAdjust="spacingAndGlyphs"
text-anchor="start" opacity="0"></text>
<g class="stroked-text"><desc></desc>
</g><path d="M77559 75396
L77559 76577
" />
<path d="M102756 75396
L102756 77955
" />
<g >
<path style="fill:#000000; fill-opacity:0.0; 
stroke:#000000; stroke-width:60.000000; stroke-opacity:1; 
stroke-linecap:round; stroke-linejoin:round;fill:none"
d="M 74500.000000,47500.000000
74500.000000,48000.000000
75000.000000,48000.000000
74500.000000,48500.000000
74000.000000,48000.000000
74500.000000,48000.000000
" /> 
<text x="74500.000000" y="49749.960630"
textLength="1583.818898" font-size="666.653543" lengthAdjust="spacingAndGlyphs"
text-anchor="middle" opacity="0">GND</text>
<g class="stroked-text"><desc>GND</desc>
<path d="M74119 49249
L74071 49226
L74000 49226
L73928 49249
L73880 49297
L73857 49345
L73833 49440
L73833 49511
L73857 49607
L73880 49654
L73928 49702
L74000 49726
L74047 49726
L74119 49702
L74142 49678
L74142 49511
L74047 49511
" />
<path d="M74357 49726
L74357 49226
L74642 49726
L74642 49226
" />
<path d="M74880 49726
L74880 49226
L75000 49226
L75071 49249
L75119 49297
L75142 49345
L75166 49440
L75166 49511
L75142 49607
L75119 49654
L75071 49702
L75000 49726
L74880 49726
" />
</g></g>
</g>
<g style="fill:#000000; fill-opacity:0.0; 
stroke:#000000; stroke-width:60.000000; stroke-opacity:1; 
stroke-linecap:round; stroke-linejoin:round;">
<g >
</g>
<g style="fill:#000000; fill-opacity:0.0; 
stroke:#000000; stroke-width:100.000000; stroke-opacity:1; 
stroke-linecap:round; stroke-linejoin:round;">
<rect x="69500.000000" y="15000.000000" width="10000.000000" height="26000.000000" rx="0.000000" />
</g>
<g style="fill:#000000; fill-opacity:0.0; 
stroke:#000000; stroke-width:60.000000; stroke-opacity:1; 
stroke-linecap:round; stroke-linejoin:round;">
<path d="M74500 41000
L74500 42000
" />
<g transform="rotate(-90.000000 74500.000000 40800.000000)">
<text x="74500.000000" y="41050.000000"
textLength="1583.818898" font-size="666.653543" lengthAdjust="spacingAndGlyphs"
text-anchor="start" opacity="0">GND</text>
</g>
<g class="stroked-text"><desc>GND</desc>
<path d="M74250 40389
L74226 40436
L74226 40508
L74250 40579
L74297 40627
L74345 40650
L74440 40674
L74511 40674
L74607 40650
L74654 40627
L74702 40579
L74726 40508
L74726 40460
L74702 40389
L74678 40365
L74511 40365
L74511 40460
" />
<path d="M74726 40150
L74226 40150
L74726 39865
L74226 39865
" />
<path d="M74726 39627
L74226 39627
L74226 39508
L74250 39436
L74297 39389
L74345 39365
L74440 39341
L74511 39341
L74607 39365
L74654 39389
L74702 39436
L74726 39508
L74726 39627
" />
</g><g transform="rotate(-90.000000 74400.000000 41500.000000)">
<text x="74400.000000" y="41500.000000"
textLength="536.181102" font-size="666.653543" lengthAdjust="spacingAndGlyphs"
text-anchor="middle" opacity="0">1</text>
</g>
<g class="stroked-text"><desc>1</desc>
<path d="M74376 41357
L74376 41642
" />
<path d="M74376 41500
L73876 41500
L73947 41547
L73995 41595
L74019 41642
" />
</g><path d="M79500 33000
L80500 33000
" />
<text x="79300.000000" y="33250.000000"
textLength="1774.291339" font-size="666.653543" lengthAdjust="spacingAndGlyphs"
text-anchor="end" opacity="0">IO25</text>
<g class="stroked-text"><desc>IO25</desc>
<path d="M77674 33226
L77674 32726
" />
<path d="M78008 32726
L78103 32726
L78150 32750
L78198 32797
L78222 32892
L78222 33059
L78198 33154
L78150 33202
L78103 33226
L78008 33226
L77960 33202
L77912 33154
L77889 33059
L77889 32892
L77912 32797
L77960 32750
L78008 32726
" />
<path d="M78412 32773
L78436 32750
L78484 32726
L78603 32726
L78650 32750
L78674 32773
L78698 32821
L78698 32869
L78674 32940
L78389 33226
L78698 33226
" />
<path d="M79150 32726
L78912 32726
L78889 32964
L78912 32940
L78960 32916
L79079 32916
L79127 32940
L79150 32964
L79174 33011
L79174 33130
L79150 33178
L79127 33202
L79079 33226
L78960 33226
L78912 33202
L78889 33178
" />
</g><text x="80000.000000" y="32900.000000"
textLength="1012.362205" font-size="666.653543" lengthAdjust="spacingAndGlyphs"
text-anchor="middle" opacity="0">10</text>
<g class="stroked-text"><desc>10</desc>
<path d="M79904 32876
L79619 32876
" />
<path d="M79761 32876
L79761 32376
L79714 32447
L79666 32495
L79619 32519
" />
<path d="M80214 32376
L80261 32376
L80309 32400
L80333 32423
L80357 32471
L80380 32566
L80380 32685
L80357 32780
L80333 32828
L80309 32852
L80261 32876
L80214 32876
L80166 32852
L80142 32828
L80119 32780
L80095 32685
L80095 32566
L80119 32471
L80142 32423
L80166 32400
L80214 32376
" />
</g><path d="M79500 34000
L80500 34000
" />
<text x="79300.000000" y="34250.000000"
textLength="1774.291339" font-size="666.653543" lengthAdjust="spacingAndGlyphs"
text-anchor="end" opacity="0">IO26</text>
<g class="stroked-text"><desc>IO26</desc>
<path d="M77674 34226
L77674 33726
" />
<path d="M78008 33726
L78103 33726
L78150 33750
L78198 33797
L78222 33892
L78222 34059
L78198 34154
L78150 34202
L78103 34226
L78008 34226
L77960 34202
L77912 34154
L77889 34059
L77889 33892
L77912 33797
L77960 33750
L78008 33726
" />
<path d="M78412 33773
L78436 33750
L78484 33726
L78603 33726
L78650 33750
L78674 33773
L78698 33821
L78698 33869
L78674 33940
L78389 34226
L78698 34226
" />
<path d="M79127 33726
L79031 33726
L78984 33750
L78960 33773
L78912 33845
L78889 33940
L78889 34130
L78912 34178
L78936 34202
L78984 34226
L79079 34226
L79127 34202
L79150 34178
L79174 34130
L79174 34011
L79150 33964
L79127 33940
L79079 33916
L78984 33916
L78936 33940
L78912 33964
L78889 34011
" />
</g><text x="80000.000000" y="33900.000000"
textLength="1012.362205" font-size="666.653543" lengthAdjust="spacingAndGlyphs"
text-anchor="middle" opacity="0">11</text>
<g class="stroked-text"><desc>11</desc>
<path d="M79904 33876
L79619 33876
" />
<path d="M79761 33876
L79761 33376
L79714 33447
L79666 33495
L79619 33519
" />
<path d="M80380 33876
L80095 33876
" />
<path d="M80238 33876
L80238 33376
L80190 33447
L80142 33495
L80095 33519
" />
</g><path d="M79500 35000
L80500 35000
" />
<text x="79300.000000" y="35250.000000"
textLength="1774.291339" font-size="666.653543" lengthAdjust="spacingAndGlyphs"
text-anchor="end" opacity="0">IO27</text>
<g class="stroked-text"><desc>IO27</desc>
<path d="M77674 35226
L77674 34726
" />
<path d="M78008 34726
L78103 34726
L78150 34750
L78198 34797
L78222 34892
L78222 35059
L78198 35154
L78150 35202
L78103 35226
L78008 35226
L77960 35202
L77912 35154
L77889 35059
L77889 34892
L77912 34797
L77960 34750
L78008 34726
" />
<path d="M78412 34773
L78436 34750
L78484 34726
L78603 34726
L78650 34750
L78674 34773
L78698 34821
L78698 34869
L78674 34940
L78389 35226
L78698 35226
" />
<path d="M78865 34726
L79198 34726
L78984 35226
" />
</g><text x="80000.000000" y="34900.000000"
textLength="1012.362205" font-size="666.653543" lengthAdjust="spacingAndGlyphs"
text-anchor="middle" opacity="0">12</text>
<g class="stroked-text"><desc>12</desc>
<path d="M79904 34876
L79619 34876
" />
<path d="M79761 34876
L79761 34376
L79714 34447
L79666 34495
L79619 34519
" />
<path d="M80095 34423
L80119 34400
L80166 34376
L80285 34376
L80333 34400
L80357 34423
L80380 34471
L80380 34519
L80357 34590
L80071 34876
L80380 34876
" />
</g><path d="M79500 24000
L80500 24000
" />
<text x="79300.000000" y="24250.000000"
textLength="1774.291339" font-size="666.653543" lengthAdjust="spacingAndGlyphs"
text-anchor="end" opacity="0">IO14</text>
<g class="stroked-text"><desc>IO14</desc>
<path d="M77674 24226
L77674 23726
" />
<path d="M78008 23726
L78103 23726
L78150 23750
L78198 23797
L78222 23892
L78222 24059
L78198 24154
L78150 24202
L78103 24226
L78008 24226
L77960 24202
L77912 24154
L77889 24059
L77889 23892
L77912 23797
L77960 23750
L78008 23726
" />
<path d="M78698 24226
L78412 24226
" />
<path d="M78555 24226
L78555 23726
L78508 23797
L78460 23845
L78412 23869
" />
<path d="M79127 23892
L79127 24226
" />
<path d="M79008 23702
L78889 24059
L79198 24059
" />
</g><text x="80000.000000" y="23900.000000"
textLength="1012.362205" font-size="666.653543" lengthAdjust="spacingAndGlyphs"
text-anchor="middle" opacity="0">13</text>
<g class="stroked-text"><desc>13</desc>
<path d="M79904 23876
L79619 23876
" />
<path d="M79761 23876
L79761 23376
L79714 23447
L79666 23495
L79619 23519
" />
<path d="M80071 23376
L80380 23376
L80214 23566
L80285 23566
L80333 23590
L80357 23614
L80380 23661
L80380 23780
L80357 23828
L80333 23852
L80285 23876
L80142 23876
L80095 23852
L80071 23828
" />
</g><path d="M79500 22000
L80500 22000
" />
<text x="79300.000000" y="22250.000000"
textLength="1774.291339" font-size="666.653543" lengthAdjust="spacingAndGlyphs"
text-anchor="end" opacity="0">IO12</text>
<g class="stroked-text"><desc>IO12</desc>
<path d="M77674 22226
L77674 21726
" />
<path d="M78008 21726
L78103 21726
L78150 21750
L78198 21797
L78222 21892
L78222 22059
L78198 22154
L78150 22202
L78103 22226
L78008 22226
L77960 22202
L77912 22154
L77889 22059
L77889 21892
L77912 21797
L77960 21750
L78008 21726
" />
<path d="M78698 22226
L78412 22226
" />
<path d="M78555 22226
L78555 21726
L78508 21797
L78460 21845
L78412 21869
" />
<path d="M78889 21773
L78912 21750
L78960 21726
L79079 21726
L79127 21750
L79150 21773
L79174 21821
L79174 21869
L79150 21940
L78865 22226
L79174 22226
" />
</g><text x="80000.000000" y="21900.000000"
textLength="1012.362205" font-size="666.653543" lengthAdjust="spacingAndGlyphs"
text-anchor="middle" opacity="0">14</text>
<g class="stroked-text"><desc>14</desc>
<path d="M79904 21876
L79619 21876
" />
<path d="M79761 21876
L79761 21376
L79714 21447
L79666 21495
L79619 21519
" />
<path d="M80333 21542
L80333 21876
" />
<path d="M80214 21352
L80095 21709
L80404 21709
" />
</g><path d="M79500 23000
L80500 23000
" />
<text x="79300.000000" y="23250.000000"
textLength="1774.291339" font-size="666.653543" lengthAdjust="spacingAndGlyphs"
text-anchor="end" opacity="0">IO13</text>
<g class="stroked-text"><desc>IO13</desc>
<path d="M77674 23226
L77674 22726
" />
<path d="M78008 22726
L78103 22726
L78150 22750
L78198 22797
L78222 22892
L78222 23059
L78198 23154
L78150 23202
L78103 23226
L78008 23226
L77960 23202
L77912 23154
L77889 23059
L77889 22892
L77912 22797
L77960 22750
L78008 22726
" />
<path d="M78698 23226
L78412 23226
" />
<path d="M78555 23226
L78555 22726
L78508 22797
L78460 22845
L78412 22869
" />
<path d="M78865 22726
L79174 22726
L79008 22916
L79079 22916
L79127 22940
L79150 22964
L79174 23011
L79174 23130
L79150 23178
L79127 23202
L79079 23226
L78936 23226
L78889 23202
L78865 23178
" />
</g><text x="80000.000000" y="22900.000000"
textLength="1012.362205" font-size="666.653543" lengthAdjust="spacingAndGlyphs"
text-anchor="middle" opacity="0">16</text>
<g class="stroked-text"><desc>16</desc>
<path d="M79904 22876
L79619 22876
" />
<path d="M79761 22876
L79761 22376
L79714 22447
L79666 22495
L79619 22519
" />
<path d="M80333 22376
L80238 22376
L80190 22400
L80166 22423
L80119 22495
L80095 22590
L80095 22780
L80119 22828
L80142 22852
L80190 22876
L80285 22876
L80333 22852
L80357 22828
L80380 22780
L80380 22661
L80357 22614
L80333 22590
L80285 22566
L80190 22566
L80142 22590
L80119 22614
L80095 22661
" />
</g><path d="M69500 30000
L68500 30000
" />
<text x="69700.000000" y="30250.000000"
textLength="3536.181102" font-size="666.653543" lengthAdjust="spacingAndGlyphs"
text-anchor="start" opacity="0">SHD/SD2</text>
<g class="stroked-text"><desc>SHD/SD2</desc>
<path d="M69825 30202
L69896 30226
L70015 30226
L70063 30202
L70087 30178
L70110 30130
L70110 30083
L70087 30035
L70063 30011
L70015 29988
L69920 29964
L69872 29940
L69849 29916
L69825 29869
L69825 29821
L69849 29773
L69872 29750
L69920 29726
L70039 29726
L70110 29750
" />
<path d="M70325 30226
L70325 29726
" />
<path d="M70325 29964
L70610 29964
" />
<path d="M70610 30226
L70610 29726
" />
<path d="M70849 30226
L70849 29726
L70968 29726
L71039 29750
L71087 29797
L71110 29845
L71134 29940
L71134 30011
L71110 30107
L71087 30154
L71039 30202
L70968 30226
L70849 30226
" />
<path d="M71706 29702
L71277 30345
" />
<path d="M71849 30202
L71920 30226
L72039 30226
L72087 30202
L72110 30178
L72134 30130
L72134 30083
L72110 30035
L72087 30011
L72039 29988
L71944 29964
L71896 29940
L71872 29916
L71849 29869
L71849 29821
L71872 29773
L71896 29750
L71944 29726
L72063 29726
L72134 29750
" />
<path d="M72349 30226
L72349 29726
L72468 29726
L72539 29750
L72587 29797
L72610 29845
L72634 29940
L72634 30011
L72610 30107
L72587 30154
L72539 30202
L72468 30226
L72349 30226
" />
<path d="M72825 29773
L72849 29750
L72896 29726
L73015 29726
L73063 29750
L73087 29773
L73110 29821
L73110 29869
L73087 29940
L72801 30226
L73110 30226
" />
</g><text x="69000.000000" y="29900.000000"
textLength="1012.362205" font-size="666.653543" lengthAdjust="spacingAndGlyphs"
text-anchor="middle" opacity="0">17</text>
<g class="stroked-text"><desc>17</desc>
<path d="M68904 29876
L68619 29876
" />
<path d="M68761 29876
L68761 29376
L68714 29447
L68666 29495
L68619 29519
" />
<path d="M69071 29376
L69404 29376
L69190 29876
" />
</g><path d="M69500 31000
L68500 31000
" />
<text x="69700.000000" y="31250.000000"
textLength="3583.818898" font-size="666.653543" lengthAdjust="spacingAndGlyphs"
text-anchor="start" opacity="0">SWP/SD3</text>
<g class="stroked-text"><desc>SWP/SD3</desc>
<path d="M69825 31202
L69896 31226
L70015 31226
L70063 31202
L70087 31178
L70110 31130
L70110 31083
L70087 31035
L70063 31011
L70015 30988
L69920 30964
L69872 30940
L69849 30916
L69825 30869
L69825 30821
L69849 30773
L69872 30750
L69920 30726
L70039 30726
L70110 30750
" />
<path d="M70277 30726
L70396 31226
L70491 30869
L70587 31226
L70706 30726
" />
<path d="M70896 31226
L70896 30726
L71087 30726
L71134 30750
L71158 30773
L71182 30821
L71182 30892
L71158 30940
L71134 30964
L71087 30988
L70896 30988
" />
<path d="M71753 30702
L71325 31345
" />
<path d="M71896 31202
L71968 31226
L72087 31226
L72134 31202
L72158 31178
L72182 31130
L72182 31083
L72158 31035
L72134 31011
L72087 30988
L71991 30964
L71944 30940
L71920 30916
L71896 30869
L71896 30821
L71920 30773
L71944 30750
L71991 30726
L72110 30726
L72182 30750
" />
<path d="M72396 31226
L72396 30726
L72515 30726
L72587 30750
L72634 30797
L72658 30845
L72682 30940
L72682 31011
L72658 31107
L72634 31154
L72587 31202
L72515 31226
L72396 31226
" />
<path d="M72849 30726
L73158 30726
L72991 30916
L73063 30916
L73110 30940
L73134 30964
L73158 31011
L73158 31130
L73134 31178
L73110 31202
L73063 31226
L72920 31226
L72872 31202
L72849 31178
" />
</g><text x="69000.000000" y="30900.000000"
textLength="1012.362205" font-size="666.653543" lengthAdjust="spacingAndGlyphs"
text-anchor="middle" opacity="0">18</text>
<g class="stroked-text"><desc>18</desc>
<path d="M68904 30876
L68619 30876
" />
<path d="M68761 30876
L68761 30376
L68714 30447
L68666 30495
L68619 30519
" />
<path d="M69190 30590
L69142 30566
L69119 30542
L69095 30495
L69095 30471
L69119 30423
L69142 30400
L69190 30376
L69285 30376
L69333 30400
L69357 30423
L69380 30471
L69380 30495
L69357 30542
L69333 30566
L69285 30590
L69190 30590
L69142 30614
L69119 30638
L69095 30685
L69095 30780
L69119 30828
L69142 30852
L69190 30876
L69285 30876
L69333 30852
L69357 30828
L69380 30780
L69380 30685
L69357 30638
L69333 30614
L69285 30590
" />
</g><path d="M69500 33000
L68500 33000
" />
<text x="69700.000000" y="33250.000000"
textLength="3607.637795" font-size="666.653543" lengthAdjust="spacingAndGlyphs"
text-anchor="start" opacity="0">SCS/CMD</text>
<g class="stroked-text"><desc>SCS/CMD</desc>
<path d="M69825 33202
L69896 33226
L70015 33226
L70063 33202
L70087 33178
L70110 33130
L70110 33083
L70087 33035
L70063 33011
L70015 32988
L69920 32964
L69872 32940
L69849 32916
L69825 32869
L69825 32821
L69849 32773
L69872 32750
L69920 32726
L70039 32726
L70110 32750
" />
<path d="M70610 33178
L70587 33202
L70515 33226
L70468 33226
L70396 33202
L70349 33154
L70325 33107
L70301 33011
L70301 32940
L70325 32845
L70349 32797
L70396 32750
L70468 32726
L70515 32726
L70587 32750
L70610 32773
" />
<path d="M70801 33202
L70872 33226
L70991 33226
L71039 33202
L71063 33178
L71087 33130
L71087 33083
L71063 33035
L71039 33011
L70991 32988
L70896 32964
L70849 32940
L70825 32916
L70801 32869
L70801 32821
L70825 32773
L70849 32750
L70896 32726
L71015 32726
L71087 32750
" />
<path d="M71658 32702
L71230 33345
" />
<path d="M72110 33178
L72087 33202
L72015 33226
L71968 33226
L71896 33202
L71849 33154
L71825 33107
L71801 33011
L71801 32940
L71825 32845
L71849 32797
L71896 32750
L71968 32726
L72015 32726
L72087 32750
L72110 32773
" />
<path d="M72325 33226
L72325 32726
L72491 33083
L72658 32726
L72658 33226
" />
<path d="M72896 33226
L72896 32726
L73015 32726
L73087 32750
L73134 32797
L73158 32845
L73182 32940
L73182 33011
L73158 33107
L73134 33154
L73087 33202
L73015 33226
L72896 33226
" />
</g><text x="69000.000000" y="32900.000000"
textLength="1012.362205" font-size="666.653543" lengthAdjust="spacingAndGlyphs"
text-anchor="middle" opacity="0">19</text>
<g class="stroked-text"><desc>19</desc>
<path d="M68904 32876
L68619 32876
" />
<path d="M68761 32876
L68761 32376
L68714 32447
L68666 32495
L68619 32519
" />
<path d="M69142 32876
L69238 32876
L69285 32852
L69309 32828
L69357 32757
L69380 32661
L69380 32471
L69357 32423
L69333 32400
L69285 32376
L69190 32376
L69142 32400
L69119 32423
L69095 32471
L69095 32590
L69119 32638
L69142 32661
L69190 32685
L69285 32685
L69333 32661
L69357 32638
L69380 32590
" />
</g><path d="M74500 15000
L74500 14000
" />
<g transform="rotate(-90.000000 74500.000000 15200.000000)">
<text x="74500.000000" y="15450.000000"
textLength="1488.582677" font-size="666.653543" lengthAdjust="spacingAndGlyphs"
text-anchor="end" opacity="0">VDD</text>
</g>
<g class="stroked-text"><desc>VDD</desc>
<path d="M74226 16610
L74726 16444
L74226 16277
" />
<path d="M74726 16110
L74226 16110
L74226 15991
L74250 15920
L74297 15872
L74345 15849
L74440 15825
L74511 15825
L74607 15849
L74654 15872
L74702 15920
L74726 15991
L74726 16110
" />
<path d="M74726 15610
L74226 15610
L74226 15491
L74250 15420
L74297 15372
L74345 15349
L74440 15325
L74511 15325
L74607 15349
L74654 15372
L74702 15420
L74726 15491
L74726 15610
" />
</g><g transform="rotate(-90.000000 74400.000000 14500.000000)">
<text x="74400.000000" y="14500.000000"
textLength="536.181102" font-size="666.653543" lengthAdjust="spacingAndGlyphs"
text-anchor="middle" opacity="0">2</text>
</g>
<g class="stroked-text"><desc>2</desc>
<path d="M73923 14642
L73900 14619
L73876 14571
L73876 14452
L73900 14404
L73923 14380
L73971 14357
L74019 14357
L74090 14380
L74376 14666
L74376 14357
" />
</g><path d="M69500 32000
L68500 32000
" />
<text x="69700.000000" y="32250.000000"
textLength="3464.763780" font-size="666.653543" lengthAdjust="spacingAndGlyphs"
text-anchor="start" opacity="0">SCK/CLK</text>
<g class="stroked-text"><desc>SCK/CLK</desc>
<path d="M69825 32202
L69896 32226
L70015 32226
L70063 32202
L70087 32178
L70110 32130
L70110 32083
L70087 32035
L70063 32011
L70015 31988
L69920 31964
L69872 31940
L69849 31916
L69825 31869
L69825 31821
L69849 31773
L69872 31750
L69920 31726
L70039 31726
L70110 31750
" />
<path d="M70610 32178
L70587 32202
L70515 32226
L70468 32226
L70396 32202
L70349 32154
L70325 32107
L70301 32011
L70301 31940
L70325 31845
L70349 31797
L70396 31750
L70468 31726
L70515 31726
L70587 31750
L70610 31773
" />
<path d="M70825 32226
L70825 31726
" />
<path d="M71110 32226
L70896 31940
" />
<path d="M71110 31726
L70825 32011
" />
<path d="M71682 31702
L71253 32345
" />
<path d="M72134 32178
L72110 32202
L72039 32226
L71991 32226
L71920 32202
L71872 32154
L71849 32107
L71825 32011
L71825 31940
L71849 31845
L71872 31797
L71920 31750
L71991 31726
L72039 31726
L72110 31750
L72134 31773
" />
<path d="M72587 32226
L72349 32226
L72349 31726
" />
<path d="M72753 32226
L72753 31726
" />
<path d="M73039 32226
L72825 31940
" />
<path d="M73039 31726
L72753 32011
" />
</g><text x="69000.000000" y="31900.000000"
textLength="1012.362205" font-size="666.653543" lengthAdjust="spacingAndGlyphs"
text-anchor="middle" opacity="0">20</text>
<g class="stroked-text"><desc>20</desc>
<path d="M68619 31423
L68642 31400
L68690 31376
L68809 31376
L68857 31400
L68880 31423
L68904 31471
L68904 31519
L68880 31590
L68595 31876
L68904 31876
" />
<path d="M69214 31376
L69261 31376
L69309 31400
L69333 31423
L69357 31471
L69380 31566
L69380 31685
L69357 31780
L69333 31828
L69309 31852
L69261 31876
L69214 31876
L69166 31852
L69142 31828
L69119 31780
L69095 31685
L69095 31566
L69119 31471
L69142 31423
L69166 31400
L69214 31376
" />
</g><path d="M69500 28000
L68500 28000
" />
<text x="69700.000000" y="28250.000000"
textLength="3536.181102" font-size="666.653543" lengthAdjust="spacingAndGlyphs"
text-anchor="start" opacity="0">SDO/SD0</text>
<g class="stroked-text"><desc>SDO/SD0</desc>
<path d="M69825 28202
L69896 28226
L70015 28226
L70063 28202
L70087 28178
L70110 28130
L70110 28083
L70087 28035
L70063 28011
L70015 27988
L69920 27964
L69872 27940
L69849 27916
L69825 27869
L69825 27821
L69849 27773
L69872 27750
L69920 27726
L70039 27726
L70110 27750
" />
<path d="M70325 28226
L70325 27726
L70444 27726
L70515 27750
L70563 27797
L70587 27845
L70610 27940
L70610 28011
L70587 28107
L70563 28154
L70515 28202
L70444 28226
L70325 28226
" />
<path d="M70920 27726
L71015 27726
L71063 27750
L71110 27797
L71134 27892
L71134 28059
L71110 28154
L71063 28202
L71015 28226
L70920 28226
L70872 28202
L70825 28154
L70801 28059
L70801 27892
L70825 27797
L70872 27750
L70920 27726
" />
<path d="M71706 27702
L71277 28345
" />
<path d="M71849 28202
L71920 28226
L72039 28226
L72087 28202
L72110 28178
L72134 28130
L72134 28083
L72110 28035
L72087 28011
L72039 27988
L71944 27964
L71896 27940
L71872 27916
L71849 27869
L71849 27821
L71872 27773
L71896 27750
L71944 27726
L72063 27726
L72134 27750
" />
<path d="M72349 28226
L72349 27726
L72468 27726
L72539 27750
L72587 27797
L72610 27845
L72634 27940
L72634 28011
L72610 28107
L72587 28154
L72539 28202
L72468 28226
L72349 28226
" />
<path d="M72944 27726
L72991 27726
L73039 27750
L73063 27773
L73087 27821
L73110 27916
L73110 28035
L73087 28130
L73063 28178
L73039 28202
L72991 28226
L72944 28226
L72896 28202
L72872 28178
L72849 28130
L72825 28035
L72825 27916
L72849 27821
L72872 27773
L72896 27750
L72944 27726
" />
</g><text x="69000.000000" y="27900.000000"
textLength="1012.362205" font-size="666.653543" lengthAdjust="spacingAndGlyphs"
text-anchor="middle" opacity="0">21</text>
<g class="stroked-text"><desc>21</desc>
<path d="M68619 27423
L68642 27400
L68690 27376
L68809 27376
L68857 27400
L68880 27423
L68904 27471
L68904 27519
L68880 27590
L68595 27876
L68904 27876
" />
<path d="M69380 27876
L69095 27876
" />
<path d="M69238 27876
L69238 27376
L69190 27447
L69142 27495
L69095 27519
" />
</g><path d="M69500 29000
L68500 29000
" />
<text x="69700.000000" y="29250.000000"
textLength="3250.472441" font-size="666.653543" lengthAdjust="spacingAndGlyphs"
text-anchor="start" opacity="0">SDI/SD1</text>
<g class="stroked-text"><desc>SDI/SD1</desc>
<path d="M69825 29202
L69896 29226
L70015 29226
L70063 29202
L70087 29178
L70110 29130
L70110 29083
L70087 29035
L70063 29011
L70015 28988
L69920 28964
L69872 28940
L69849 28916
L69825 28869
L69825 28821
L69849 28773
L69872 28750
L69920 28726
L70039 28726
L70110 28750
" />
<path d="M70325 29226
L70325 28726
L70444 28726
L70515 28750
L70563 28797
L70587 28845
L70610 28940
L70610 29011
L70587 29107
L70563 29154
L70515 29202
L70444 29226
L70325 29226
" />
<path d="M70825 29226
L70825 28726
" />
<path d="M71420 28702
L70991 29345
" />
<path d="M71563 29202
L71634 29226
L71753 29226
L71801 29202
L71825 29178
L71849 29130
L71849 29083
L71825 29035
L71801 29011
L71753 28988
L71658 28964
L71610 28940
L71587 28916
L71563 28869
L71563 28821
L71587 28773
L71610 28750
L71658 28726
L71777 28726
L71849 28750
" />
<path d="M72063 29226
L72063 28726
L72182 28726
L72253 28750
L72301 28797
L72325 28845
L72349 28940
L72349 29011
L72325 29107
L72301 29154
L72253 29202
L72182 29226
L72063 29226
" />
<path d="M72825 29226
L72539 29226
" />
<path d="M72682 29226
L72682 28726
L72634 28797
L72587 28845
L72539 28869
" />
</g><text x="69000.000000" y="28900.000000"
textLength="1012.362205" font-size="666.653543" lengthAdjust="spacingAndGlyphs"
text-anchor="middle" opacity="0">22</text>
<g class="stroked-text"><desc>22</desc>
<path d="M68619 28423
L68642 28400
L68690 28376
L68809 28376
L68857 28400
L68880 28423
L68904 28471
L68904 28519
L68880 28590
L68595 28876
L68904 28876
" />
<path d="M69095 28423
L69119 28400
L69166 28376
L69285 28376
L69333 28400
L69357 28423
L69380 28471
L69380 28519
L69357 28590
L69071 28876
L69380 28876
" />
</g><path d="M79500 25000
L80500 25000
" />
<text x="79300.000000" y="25250.000000"
textLength="1774.291339" font-size="666.653543" lengthAdjust="spacingAndGlyphs"
text-anchor="end" opacity="0">IO15</text>
<g class="stroked-text"><desc>IO15</desc>
<path d="M77674 25226
L77674 24726
" />
<path d="M78008 24726
L78103 24726
L78150 24750
L78198 24797
L78222 24892
L78222 25059
L78198 25154
L78150 25202
L78103 25226
L78008 25226
L77960 25202
L77912 25154
L77889 25059
L77889 24892
L77912 24797
L77960 24750
L78008 24726
" />
<path d="M78698 25226
L78412 25226
" />
<path d="M78555 25226
L78555 24726
L78508 24797
L78460 24845
L78412 24869
" />
<path d="M79150 24726
L78912 24726
L78889 24964
L78912 24940
L78960 24916
L79079 24916
L79127 24940
L79150 24964
L79174 25011
L79174 25130
L79150 25178
L79127 25202
L79079 25226
L78960 25226
L78912 25202
L78889 25178
" />
</g><text x="80000.000000" y="24900.000000"
textLength="1012.362205" font-size="666.653543" lengthAdjust="spacingAndGlyphs"
text-anchor="middle" opacity="0">23</text>
<g class="stroked-text"><desc>23</desc>
<path d="M79619 24423
L79642 24400
L79690 24376
L79809 24376
L79857 24400
L79880 24423
L79904 24471
L79904 24519
L79880 24590
L79595 24876
L79904 24876
" />
<path d="M80071 24376
L80380 24376
L80214 24566
L80285 24566
L80333 24590
L80357 24614
L80380 24661
L80380 24780
L80357 24828
L80333 24852
L80285 24876
L80142 24876
L80095 24852
L80071 24828
" />
</g><path d="M79500 18000
L80500 18000
" />
<text x="79300.000000" y="18250.000000"
textLength="1298.110236" font-size="666.653543" lengthAdjust="spacingAndGlyphs"
text-anchor="end" opacity="0">IO2</text>
<g class="stroked-text"><desc>IO2</desc>
<path d="M78150 18226
L78150 17726
" />
<path d="M78484 17726
L78579 17726
L78627 17750
L78674 17797
L78698 17892
L78698 18059
L78674 18154
L78627 18202
L78579 18226
L78484 18226
L78436 18202
L78389 18154
L78365 18059
L78365 17892
L78389 17797
L78436 17750
L78484 17726
" />
<path d="M78889 17773
L78912 17750
L78960 17726
L79079 17726
L79127 17750
L79150 17773
L79174 17821
L79174 17869
L79150 17940
L78865 18226
L79174 18226
" />
</g><text x="80000.000000" y="17900.000000"
textLength="1012.362205" font-size="666.653543" lengthAdjust="spacingAndGlyphs"
text-anchor="middle" opacity="0">24</text>
<g class="stroked-text"><desc>24</desc>
<path d="M79619 17423
L79642 17400
L79690 17376
L79809 17376
L79857 17400
L79880 17423
L79904 17471
L79904 17519
L79880 17590
L79595 17876
L79904 17876
" />
<path d="M80333 17542
L80333 17876
" />
<path d="M80214 17352
L80095 17709
L80404 17709
" />
</g><path d="M79500 16000
L80500 16000
" />
<text x="79300.000000" y="16250.000000"
textLength="1298.110236" font-size="666.653543" lengthAdjust="spacingAndGlyphs"
text-anchor="end" opacity="0">IO0</text>
<g class="stroked-text"><desc>IO0</desc>
<path d="M78150 16226
L78150 15726
" />
<path d="M78484 15726
L78579 15726
L78627 15750
L78674 15797
L78698 15892
L78698 16059
L78674 16154
L78627 16202
L78579 16226
L78484 16226
L78436 16202
L78389 16154
L78365 16059
L78365 15892
L78389 15797
L78436 15750
L78484 15726
" />
<path d="M79008 15726
L79055 15726
L79103 15750
L79127 15773
L79150 15821
L79174 15916
L79174 16035
L79150 16130
L79127 16178
L79103 16202
L79055 16226
L79008 16226
L78960 16202
L78936 16178
L78912 16130
L78889 16035
L78889 15916
L78912 15821
L78936 15773
L78960 15750
L79008 15726
" />
</g><text x="80000.000000" y="15900.000000"
textLength="1012.362205" font-size="666.653543" lengthAdjust="spacingAndGlyphs"
text-anchor="middle" opacity="0">25</text>
<g class="stroked-text"><desc>25</desc>
<path d="M79619 15423
L79642 15400
L79690 15376
L79809 15376
L79857 15400
L79880 15423
L79904 15471
L79904 15519
L79880 15590
L79595 15876
L79904 15876
" />
<path d="M80357 15376
L80119 15376
L80095 15614
L80119 15590
L80166 15566
L80285 15566
L80333 15590
L80357 15614
L80380 15661
L80380 15780
L80357 15828
L80333 15852
L80285 15876
L80166 15876
L80119 15852
L80095 15828
" />
</g><path d="M79500 20000
L80500 20000
" />
<text x="79300.000000" y="20250.000000"
textLength="1298.110236" font-size="666.653543" lengthAdjust="spacingAndGlyphs"
text-anchor="end" opacity="0">IO4</text>
<g class="stroked-text"><desc>IO4</desc>
<path d="M78150 20226
L78150 19726
" />
<path d="M78484 19726
L78579 19726
L78627 19750
L78674 19797
L78698 19892
L78698 20059
L78674 20154
L78627 20202
L78579 20226
L78484 20226
L78436 20202
L78389 20154
L78365 20059
L78365 19892
L78389 19797
L78436 19750
L78484 19726
" />
<path d="M79127 19892
L79127 20226
" />
<path d="M79008 19702
L78889 20059
L79198 20059
" />
</g><text x="80000.000000" y="19900.000000"
textLength="1012.362205" font-size="666.653543" lengthAdjust="spacingAndGlyphs"
text-anchor="middle" opacity="0">26</text>
<g class="stroked-text"><desc>26</desc>
<path d="M79619 19423
L79642 19400
L79690 19376
L79809 19376
L79857 19400
L79880 19423
L79904 19471
L79904 19519
L79880 19590
L79595 19876
L79904 19876
" />
<path d="M80333 19376
L80238 19376
L80190 19400
L80166 19423
L80119 19495
L80095 19590
L80095 19780
L80119 19828
L80142 19852
L80190 19876
L80285 19876
L80333 19852
L80357 19828
L80380 19780
L80380 19661
L80357 19614
L80333 19590
L80285 19566
L80190 19566
L80142 19590
L80119 19614
L80095 19661
" />
</g><path d="M79500 26000
L80500 26000
" />
<text x="79300.000000" y="26250.000000"
textLength="1774.291339" font-size="666.653543" lengthAdjust="spacingAndGlyphs"
text-anchor="end" opacity="0">IO16</text>
<g class="stroked-text"><desc>IO16</desc>
<path d="M77674 26226
L77674 25726
" />
<path d="M78008 25726
L78103 25726
L78150 25750
L78198 25797
L78222 25892
L78222 26059
L78198 26154
L78150 26202
L78103 26226
L78008 26226
L77960 26202
L77912 26154
L77889 26059
L77889 25892
L77912 25797
L77960 25750
L78008 25726
" />
<path d="M78698 26226
L78412 26226
" />
<path d="M78555 26226
L78555 25726
L78508 25797
L78460 25845
L78412 25869
" />
<path d="M79127 25726
L79031 25726
L78984 25750
L78960 25773
L78912 25845
L78889 25940
L78889 26130
L78912 26178
L78936 26202
L78984 26226
L79079 26226
L79127 26202
L79150 26178
L79174 26130
L79174 26011
L79150 25964
L79127 25940
L79079 25916
L78984 25916
L78936 25940
L78912 25964
L78889 26011
" />
</g><text x="80000.000000" y="25900.000000"
textLength="1012.362205" font-size="666.653543" lengthAdjust="spacingAndGlyphs"
text-anchor="middle" opacity="0">27</text>
<g class="stroked-text"><desc>27</desc>
<path d="M79619 25423
L79642 25400
L79690 25376
L79809 25376
L79857 25400
L79880 25423
L79904 25471
L79904 25519
L79880 25590
L79595 25876
L79904 25876
" />
<path d="M80071 25376
L80404 25376
L80190 25876
" />
</g><path d="M79500 27000
L80500 27000
" />
<text x="79300.000000" y="27250.000000"
textLength="1774.291339" font-size="666.653543" lengthAdjust="spacingAndGlyphs"
text-anchor="end" opacity="0">IO17</text>
<g class="stroked-text"><desc>IO17</desc>
<path d="M77674 27226
L77674 26726
" />
<path d="M78008 26726
L78103 26726
L78150 26750
L78198 26797
L78222 26892
L78222 27059
L78198 27154
L78150 27202
L78103 27226
L78008 27226
L77960 27202
L77912 27154
L77889 27059
L77889 26892
L77912 26797
L77960 26750
L78008 26726
" />
<path d="M78698 27226
L78412 27226
" />
<path d="M78555 27226
L78555 26726
L78508 26797
L78460 26845
L78412 26869
" />
<path d="M78865 26726
L79198 26726
L78984 27226
" />
</g><text x="80000.000000" y="26900.000000"
textLength="1012.362205" font-size="666.653543" lengthAdjust="spacingAndGlyphs"
text-anchor="middle" opacity="0">28</text>
<g class="stroked-text"><desc>28</desc>
<path d="M79619 26423
L79642 26400
L79690 26376
L79809 26376
L79857 26400
L79880 26423
L79904 26471
L79904 26519
L79880 26590
L79595 26876
L79904 26876
" />
<path d="M80190 26590
L80142 26566
L80119 26542
L80095 26495
L80095 26471
L80119 26423
L80142 26400
L80190 26376
L80285 26376
L80333 26400
L80357 26423
L80380 26471
L80380 26495
L80357 26542
L80333 26566
L80285 26590
L80190 26590
L80142 26614
L80119 26638
L80095 26685
L80095 26780
L80119 26828
L80142 26852
L80190 26876
L80285 26876
L80333 26852
L80357 26828
L80380 26780
L80380 26685
L80357 26638
L80333 26614
L80285 26590
" />
</g><path d="M79500 21000
L80500 21000
" />
<text x="79300.000000" y="21250.000000"
textLength="1298.110236" font-size="666.653543" lengthAdjust="spacingAndGlyphs"
text-anchor="end" opacity="0">IO5</text>
<g class="stroked-text"><desc>IO5</desc>
<path d="M78150 21226
L78150 20726
" />
<path d="M78484 20726
L78579 20726
L78627 20750
L78674 20797
L78698 20892
L78698 21059
L78674 21154
L78627 21202
L78579 21226
L78484 21226
L78436 21202
L78389 21154
L78365 21059
L78365 20892
L78389 20797
L78436 20750
L78484 20726
" />
<path d="M79150 20726
L78912 20726
L78889 20964
L78912 20940
L78960 20916
L79079 20916
L79127 20940
L79150 20964
L79174 21011
L79174 21130
L79150 21178
L79127 21202
L79079 21226
L78960 21226
L78912 21202
L78889 21178
" />
</g><text x="80000.000000" y="20900.000000"
textLength="1012.362205" font-size="666.653543" lengthAdjust="spacingAndGlyphs"
text-anchor="middle" opacity="0">29</text>
<g class="stroked-text"><desc>29</desc>
<path d="M79619 20423
L79642 20400
L79690 20376
L79809 20376
L79857 20400
L79880 20423
L79904 20471
L79904 20519
L79880 20590
L79595 20876
L79904 20876
" />
<path d="M80142 20876
L80238 20876
L80285 20852
L80309 20828
L80357 20757
L80380 20661
L80380 20471
L80357 20423
L80333 20400
L80285 20376
L80190 20376
L80142 20400
L80119 20423
L80095 20471
L80095 20590
L80119 20638
L80142 20661
L80190 20685
L80285 20685
L80333 20661
L80357 20638
L80380 20590
" />
</g><path d="M69500 16000
L68500 16000
" />
<text x="69700.000000" y="16250.000000"
textLength="1036.181102" font-size="666.653543" lengthAdjust="spacingAndGlyphs"
text-anchor="start" opacity="0">EN</text>
<g class="stroked-text"><desc>EN</desc>
<path d="M69849 15964
L70015 15964
" />
<path d="M70087 16226
L69849 16226
L69849 15726
L70087 15726
" />
<path d="M70301 16226
L70301 15726
L70587 16226
L70587 15726
" />
</g><text x="69000.000000" y="15900.000000"
textLength="536.181102" font-size="666.653543" lengthAdjust="spacingAndGlyphs"
text-anchor="middle" opacity="0">3</text>
<g class="stroked-text"><desc>3</desc>
<path d="M68833 15376
L69142 15376
L68976 15566
L69047 15566
L69095 15590
L69119 15614
L69142 15661
L69142 15780
L69119 15828
L69095 15852
L69047 15876
L68904 15876
L68857 15852
L68833 15828
" />
</g><path d="M79500 28000
L80500 28000
" />
<text x="79300.000000" y="28250.000000"
textLength="1774.291339" font-size="666.653543" lengthAdjust="spacingAndGlyphs"
text-anchor="end" opacity="0">IO18</text>
<g class="stroked-text"><desc>IO18</desc>
<path d="M77674 28226
L77674 27726
" />
<path d="M78008 27726
L78103 27726
L78150 27750
L78198 27797
L78222 27892
L78222 28059
L78198 28154
L78150 28202
L78103 28226
L78008 28226
L77960 28202
L77912 28154
L77889 28059
L77889 27892
L77912 27797
L77960 27750
L78008 27726
" />
<path d="M78698 28226
L78412 28226
" />
<path d="M78555 28226
L78555 27726
L78508 27797
L78460 27845
L78412 27869
" />
<path d="M78984 27940
L78936 27916
L78912 27892
L78889 27845
L78889 27821
L78912 27773
L78936 27750
L78984 27726
L79079 27726
L79127 27750
L79150 27773
L79174 27821
L79174 27845
L79150 27892
L79127 27916
L79079 27940
L78984 27940
L78936 27964
L78912 27988
L78889 28035
L78889 28130
L78912 28178
L78936 28202
L78984 28226
L79079 28226
L79127 28202
L79150 28178
L79174 28130
L79174 28035
L79150 27988
L79127 27964
L79079 27940
" />
</g><text x="80000.000000" y="27900.000000"
textLength="1012.362205" font-size="666.653543" lengthAdjust="spacingAndGlyphs"
text-anchor="middle" opacity="0">30</text>
<g class="stroked-text"><desc>30</desc>
<path d="M79595 27376
L79904 27376
L79738 27566
L79809 27566
L79857 27590
L79880 27614
L79904 27661
L79904 27780
L79880 27828
L79857 27852
L79809 27876
L79666 27876
L79619 27852
L79595 27828
" />
<path d="M80214 27376
L80261 27376
L80309 27400
L80333 27423
L80357 27471
L80380 27566
L80380 27685
L80357 27780
L80333 27828
L80309 27852
L80261 27876
L80214 27876
L80166 27852
L80142 27828
L80119 27780
L80095 27685
L80095 27566
L80119 27471
L80142 27423
L80166 27400
L80214 27376
" />
</g><path d="M79500 29000
L80500 29000
" />
<text x="79300.000000" y="29250.000000"
textLength="1774.291339" font-size="666.653543" lengthAdjust="spacingAndGlyphs"
text-anchor="end" opacity="0">IO19</text>
<g class="stroked-text"><desc>IO19</desc>
<path d="M77674 29226
L77674 28726
" />
<path d="M78008 28726
L78103 28726
L78150 28750
L78198 28797
L78222 28892
L78222 29059
L78198 29154
L78150 29202
L78103 29226
L78008 29226
L77960 29202
L77912 29154
L77889 29059
L77889 28892
L77912 28797
L77960 28750
L78008 28726
" />
<path d="M78698 29226
L78412 29226
" />
<path d="M78555 29226
L78555 28726
L78508 28797
L78460 28845
L78412 28869
" />
<path d="M78936 29226
L79031 29226
L79079 29202
L79103 29178
L79150 29107
L79174 29011
L79174 28821
L79150 28773
L79127 28750
L79079 28726
L78984 28726
L78936 28750
L78912 28773
L78889 28821
L78889 28940
L78912 28988
L78936 29011
L78984 29035
L79079 29035
L79127 29011
L79150 28988
L79174 28940
" />
</g><text x="80000.000000" y="28900.000000"
textLength="1012.362205" font-size="666.653543" lengthAdjust="spacingAndGlyphs"
text-anchor="middle" opacity="0">31</text>
<g class="stroked-text"><desc>31</desc>
<path d="M79595 28376
L79904 28376
L79738 28566
L79809 28566
L79857 28590
L79880 28614
L79904 28661
L79904 28780
L79880 28828
L79857 28852
L79809 28876
L79666 28876
L79619 28852
L79595 28828
" />
<path d="M80380 28876
L80095 28876
" />
<path d="M80238 28876
L80238 28376
L80190 28447
L80142 28495
L80095 28519
" />
</g><path d="M79500 30000
L80500 30000
" />
<text x="79300.000000" y="30250.000000"
textLength="1774.291339" font-size="666.653543" lengthAdjust="spacingAndGlyphs"
text-anchor="end" opacity="0">IO21</text>
<g class="stroked-text"><desc>IO21</desc>
<path d="M77674 30226
L77674 29726
" />
<path d="M78008 29726
L78103 29726
L78150 29750
L78198 29797
L78222 29892
L78222 30059
L78198 30154
L78150 30202
L78103 30226
L78008 30226
L77960 30202
L77912 30154
L77889 30059
L77889 29892
L77912 29797
L77960 29750
L78008 29726
" />
<path d="M78412 29773
L78436 29750
L78484 29726
L78603 29726
L78650 29750
L78674 29773
L78698 29821
L78698 29869
L78674 29940
L78389 30226
L78698 30226
" />
<path d="M79174 30226
L78889 30226
" />
<path d="M79031 30226
L79031 29726
L78984 29797
L78936 29845
L78889 29869
" />
</g><text x="80000.000000" y="29900.000000"
textLength="1012.362205" font-size="666.653543" lengthAdjust="spacingAndGlyphs"
text-anchor="middle" opacity="0">33</text>
<g class="stroked-text"><desc>33</desc>
<path d="M79595 29376
L79904 29376
L79738 29566
L79809 29566
L79857 29590
L79880 29614
L79904 29661
L79904 29780
L79880 29828
L79857 29852
L79809 29876
L79666 29876
L79619 29852
L79595 29828
" />
<path d="M80071 29376
L80380 29376
L80214 29566
L80285 29566
L80333 29590
L80357 29614
L80380 29661
L80380 29780
L80357 29828
L80333 29852
L80285 29876
L80142 29876
L80095 29852
L80071 29828
" />
</g><path d="M79500 19000
L80500 19000
" />
<text x="79300.000000" y="19250.000000"
textLength="3774.291339" font-size="666.653543" lengthAdjust="spacingAndGlyphs"
text-anchor="end" opacity="0">RXD0/IO3</text>
<g class="stroked-text"><desc>RXD0/IO3</desc>
<path d="M75960 19226
L75793 18988
" />
<path d="M75674 19226
L75674 18726
L75865 18726
L75912 18750
L75936 18773
L75960 18821
L75960 18892
L75936 18940
L75912 18964
L75865 18988
L75674 18988
" />
<path d="M76127 18726
L76460 19226
" />
<path d="M76460 18726
L76127 19226
" />
<path d="M76650 19226
L76650 18726
L76770 18726
L76841 18750
L76889 18797
L76912 18845
L76936 18940
L76936 19011
L76912 19107
L76889 19154
L76841 19202
L76770 19226
L76650 19226
" />
<path d="M77246 18726
L77293 18726
L77341 18750
L77365 18773
L77389 18821
L77412 18916
L77412 19035
L77389 19130
L77365 19178
L77341 19202
L77293 19226
L77246 19226
L77198 19202
L77174 19178
L77150 19130
L77127 19035
L77127 18916
L77150 18821
L77174 18773
L77198 18750
L77246 18726
" />
<path d="M77984 18702
L77555 19345
" />
<path d="M78150 19226
L78150 18726
" />
<path d="M78484 18726
L78579 18726
L78627 18750
L78674 18797
L78698 18892
L78698 19059
L78674 19154
L78627 19202
L78579 19226
L78484 19226
L78436 19202
L78389 19154
L78365 19059
L78365 18892
L78389 18797
L78436 18750
L78484 18726
" />
<path d="M78865 18726
L79174 18726
L79008 18916
L79079 18916
L79127 18940
L79150 18964
L79174 19011
L79174 19130
L79150 19178
L79127 19202
L79079 19226
L78936 19226
L78889 19202
L78865 19178
" />
</g><text x="80000.000000" y="18900.000000"
textLength="1012.362205" font-size="666.653543" lengthAdjust="spacingAndGlyphs"
text-anchor="middle" opacity="0">34</text>
<g class="stroked-text"><desc>34</desc>
<path d="M79595 18376
L79904 18376
L79738 18566
L79809 18566
L79857 18590
L79880 18614
L79904 18661
L79904 18780
L79880 18828
L79857 18852
L79809 18876
L79666 18876
L79619 18852
L79595 18828
" />
<path d="M80333 18542
L80333 18876
" />
<path d="M80214 18352
L80095 18709
L80404 18709
" />
</g><path d="M79500 17000
L80500 17000
" />
<text x="79300.000000" y="17250.000000"
textLength="3655.236220" font-size="666.653543" lengthAdjust="spacingAndGlyphs"
text-anchor="end" opacity="0">TXD0/IO1</text>
<g class="stroked-text"><desc>TXD0/IO1</desc>
<path d="M75722 16726
L76008 16726
" />
<path d="M75865 17226
L75865 16726
" />
<path d="M76127 16726
L76460 17226
" />
<path d="M76460 16726
L76127 17226
" />
<path d="M76650 17226
L76650 16726
L76770 16726
L76841 16750
L76889 16797
L76912 16845
L76936 16940
L76936 17011
L76912 17107
L76889 17154
L76841 17202
L76770 17226
L76650 17226
" />
<path d="M77246 16726
L77293 16726
L77341 16750
L77365 16773
L77389 16821
L77412 16916
L77412 17035
L77389 17130
L77365 17178
L77341 17202
L77293 17226
L77246 17226
L77198 17202
L77174 17178
L77150 17130
L77127 17035
L77127 16916
L77150 16821
L77174 16773
L77198 16750
L77246 16726
" />
<path d="M77984 16702
L77555 17345
" />
<path d="M78150 17226
L78150 16726
" />
<path d="M78484 16726
L78579 16726
L78627 16750
L78674 16797
L78698 16892
L78698 17059
L78674 17154
L78627 17202
L78579 17226
L78484 17226
L78436 17202
L78389 17154
L78365 17059
L78365 16892
L78389 16797
L78436 16750
L78484 16726
" />
<path d="M79174 17226
L78889 17226
" />
<path d="M79031 17226
L79031 16726
L78984 16797
L78936 16845
L78889 16869
" />
</g><text x="80000.000000" y="16900.000000"
textLength="1012.362205" font-size="666.653543" lengthAdjust="spacingAndGlyphs"
text-anchor="middle" opacity="0">35</text>
<g class="stroked-text"><desc>35</desc>
<path d="M79595 16376
L79904 16376
L79738 16566
L79809 16566
L79857 16590
L79880 16614
L79904 16661
L79904 16780
L79880 16828
L79857 16852
L79809 16876
L79666 16876
L79619 16852
L79595 16828
" />
<path d="M80357 16376
L80119 16376
L80095 16614
L80119 16590
L80166 16566
L80285 16566
L80333 16590
L80357 16614
L80380 16661
L80380 16780
L80357 16828
L80333 16852
L80285 16876
L80166 16876
L80119 16852
L80095 16828
" />
</g><path d="M79500 31000
L80500 31000
" />
<text x="79300.000000" y="31250.000000"
textLength="1774.291339" font-size="666.653543" lengthAdjust="spacingAndGlyphs"
text-anchor="end" opacity="0">IO22</text>
<g class="stroked-text"><desc>IO22</desc>
<path d="M77674 31226
L77674 30726
" />
<path d="M78008 30726
L78103 30726
L78150 30750
L78198 30797
L78222 30892
L78222 31059
L78198 31154
L78150 31202
L78103 31226
L78008 31226
L77960 31202
L77912 31154
L77889 31059
L77889 30892
L77912 30797
L77960 30750
L78008 30726
" />
<path d="M78412 30773
L78436 30750
L78484 30726
L78603 30726
L78650 30750
L78674 30773
L78698 30821
L78698 30869
L78674 30940
L78389 31226
L78698 31226
" />
<path d="M78889 30773
L78912 30750
L78960 30726
L79079 30726
L79127 30750
L79150 30773
L79174 30821
L79174 30869
L79150 30940
L78865 31226
L79174 31226
" />
</g><text x="80000.000000" y="30900.000000"
textLength="1012.362205" font-size="666.653543" lengthAdjust="spacingAndGlyphs"
text-anchor="middle" opacity="0">36</text>
<g class="stroked-text"><desc>36</desc>
<path d="M79595 30376
L79904 30376
L79738 30566
L79809 30566
L79857 30590
L79880 30614
L79904 30661
L79904 30780
L79880 30828
L79857 30852
L79809 30876
L79666 30876
L79619 30852
L79595 30828
" />
<path d="M80333 30376
L80238 30376
L80190 30400
L80166 30423
L80119 30495
L80095 30590
L80095 30780
L80119 30828
L80142 30852
L80190 30876
L80285 30876
L80333 30852
L80357 30828
L80380 30780
L80380 30661
L80357 30614
L80333 30590
L80285 30566
L80190 30566
L80142 30590
L80119 30614
L80095 30661
" />
</g><path d="M79500 32000
L80500 32000
" />
<text x="79300.000000" y="32250.000000"
textLength="1774.291339" font-size="666.653543" lengthAdjust="spacingAndGlyphs"
text-anchor="end" opacity="0">IO23</text>
<g class="stroked-text"><desc>IO23</desc>
<path d="M77674 32226
L77674 31726
" />
<path d="M78008 31726
L78103 31726
L78150 31750
L78198 31797
L78222 31892
L78222 32059
L78198 32154
L78150 32202
L78103 32226
L78008 32226
L77960 32202
L77912 32154
L77889 32059
L77889 31892
L77912 31797
L77960 31750
L78008 31726
" />
<path d="M78412 31773
L78436 31750
L78484 31726
L78603 31726
L78650 31750
L78674 31773
L78698 31821
L78698 31869
L78674 31940
L78389 32226
L78698 32226
" />
<path d="M78865 31726
L79174 31726
L79008 31916
L79079 31916
L79127 31940
L79150 31964
L79174 32011
L79174 32130
L79150 32178
L79127 32202
L79079 32226
L78936 32226
L78889 32202
L78865 32178
" />
</g><text x="80000.000000" y="31900.000000"
textLength="1012.362205" font-size="666.653543" lengthAdjust="spacingAndGlyphs"
text-anchor="middle" opacity="0">37</text>
<g class="stroked-text"><desc>37</desc>
<path d="M79595 31376
L79904 31376
L79738 31566
L79809 31566
L79857 31590
L79880 31614
L79904 31661
L79904 31780
L79880 31828
L79857 31852
L79809 31876
L79666 31876
L79619 31852
L79595 31828
" />
<path d="M80071 31376
L80404 31376
L80190 31876
" />
</g><path d="M69500 18000
L68500 18000
" />
<text x="69700.000000" y="18250.000000"
textLength="4321.889764" font-size="666.653543" lengthAdjust="spacingAndGlyphs"
text-anchor="start" opacity="0">SENSOR_VP</text>
<g class="stroked-text"><desc>SENSOR_VP</desc>
<path d="M69825 18202
L69896 18226
L70015 18226
L70063 18202
L70087 18178
L70110 18130
L70110 18083
L70087 18035
L70063 18011
L70015 17988
L69920 17964
L69872 17940
L69849 17916
L69825 17869
L69825 17821
L69849 17773
L69872 17750
L69920 17726
L70039 17726
L70110 17750
" />
<path d="M70325 17964
L70491 17964
" />
<path d="M70563 18226
L70325 18226
L70325 17726
L70563 17726
" />
<path d="M70777 18226
L70777 17726
L71063 18226
L71063 17726
" />
<path d="M71277 18202
L71349 18226
L71468 18226
L71515 18202
L71539 18178
L71563 18130
L71563 18083
L71539 18035
L71515 18011
L71468 17988
L71372 17964
L71325 17940
L71301 17916
L71277 17869
L71277 17821
L71301 17773
L71325 17750
L71372 17726
L71491 17726
L71563 17750
" />
<path d="M71872 17726
L71968 17726
L72015 17750
L72063 17797
L72087 17892
L72087 18059
L72063 18154
L72015 18202
L71968 18226
L71872 18226
L71825 18202
L71777 18154
L71753 18059
L71753 17892
L71777 17797
L71825 17750
L71872 17726
" />
<path d="M72587 18226
L72420 17988
" />
<path d="M72301 18226
L72301 17726
L72491 17726
L72539 17750
L72563 17773
L72587 17821
L72587 17892
L72563 17940
L72539 17964
L72491 17988
L72301 17988
" />
<path d="M72682 18273
L73063 18273
" />
<path d="M73110 17726
L73277 18226
L73444 17726
" />
<path d="M73610 18226
L73610 17726
L73801 17726
L73849 17750
L73872 17773
L73896 17821
L73896 17892
L73872 17940
L73849 17964
L73801 17988
L73610 17988
" />
</g><text x="69000.000000" y="17900.000000"
textLength="536.181102" font-size="666.653543" lengthAdjust="spacingAndGlyphs"
text-anchor="middle" opacity="0">4</text>
<g class="stroked-text"><desc>4</desc>
<path d="M69095 17542
L69095 17876
" />
<path d="M68976 17352
L68857 17709
L69166 17709
" />
</g><path d="M69500 19000
L68500 19000
" />
<text x="69700.000000" y="19250.000000"
textLength="4345.708661" font-size="666.653543" lengthAdjust="spacingAndGlyphs"
text-anchor="start" opacity="0">SENSOR_VN</text>
<g class="stroked-text"><desc>SENSOR_VN</desc>
<path d="M69825 19202
L69896 19226
L70015 19226
L70063 19202
L70087 19178
L70110 19130
L70110 19083
L70087 19035
L70063 19011
L70015 18988
L69920 18964
L69872 18940
L69849 18916
L69825 18869
L69825 18821
L69849 18773
L69872 18750
L69920 18726
L70039 18726
L70110 18750
" />
<path d="M70325 18964
L70491 18964
" />
<path d="M70563 19226
L70325 19226
L70325 18726
L70563 18726
" />
<path d="M70777 19226
L70777 18726
L71063 19226
L71063 18726
" />
<path d="M71277 19202
L71349 19226
L71468 19226
L71515 19202
L71539 19178
L71563 19130
L71563 19083
L71539 19035
L71515 19011
L71468 18988
L71372 18964
L71325 18940
L71301 18916
L71277 18869
L71277 18821
L71301 18773
L71325 18750
L71372 18726
L71491 18726
L71563 18750
" />
<path d="M71872 18726
L71968 18726
L72015 18750
L72063 18797
L72087 18892
L72087 19059
L72063 19154
L72015 19202
L71968 19226
L71872 19226
L71825 19202
L71777 19154
L71753 19059
L71753 18892
L71777 18797
L71825 18750
L71872 18726
" />
<path d="M72587 19226
L72420 18988
" />
<path d="M72301 19226
L72301 18726
L72491 18726
L72539 18750
L72563 18773
L72587 18821
L72587 18892
L72563 18940
L72539 18964
L72491 18988
L72301 18988
" />
<path d="M72682 19273
L73063 19273
" />
<path d="M73110 18726
L73277 19226
L73444 18726
" />
<path d="M73610 19226
L73610 18726
L73896 19226
L73896 18726
" />
</g><text x="69000.000000" y="18900.000000"
textLength="536.181102" font-size="666.653543" lengthAdjust="spacingAndGlyphs"
text-anchor="middle" opacity="0">5</text>
<g class="stroked-text"><desc>5</desc>
<path d="M69119 18376
L68880 18376
L68857 18614
L68880 18590
L68928 18566
L69047 18566
L69095 18590
L69119 18614
L69142 18661
L69142 18780
L69119 18828
L69095 18852
L69047 18876
L68928 18876
L68880 18852
L68857 18828
" />
</g><path d="M79500 38000
L80500 38000
" />
<text x="79300.000000" y="38250.000000"
textLength="1774.291339" font-size="666.653543" lengthAdjust="spacingAndGlyphs"
text-anchor="end" opacity="0">IO34</text>
<g class="stroked-text"><desc>IO34</desc>
<path d="M77674 38226
L77674 37726
" />
<path d="M78008 37726
L78103 37726
L78150 37750
L78198 37797
L78222 37892
L78222 38059
L78198 38154
L78150 38202
L78103 38226
L78008 38226
L77960 38202
L77912 38154
L77889 38059
L77889 37892
L77912 37797
L77960 37750
L78008 37726
" />
<path d="M78389 37726
L78698 37726
L78531 37916
L78603 37916
L78650 37940
L78674 37964
L78698 38011
L78698 38130
L78674 38178
L78650 38202
L78603 38226
L78460 38226
L78412 38202
L78389 38178
" />
<path d="M79127 37892
L79127 38226
" />
<path d="M79008 37702
L78889 38059
L79198 38059
" />
</g><text x="80000.000000" y="37900.000000"
textLength="536.181102" font-size="666.653543" lengthAdjust="spacingAndGlyphs"
text-anchor="middle" opacity="0">6</text>
<g class="stroked-text"><desc>6</desc>
<path d="M80095 37376
L80000 37376
L79952 37400
L79928 37423
L79880 37495
L79857 37590
L79857 37780
L79880 37828
L79904 37852
L79952 37876
L80047 37876
L80095 37852
L80119 37828
L80142 37780
L80142 37661
L80119 37614
L80095 37590
L80047 37566
L79952 37566
L79904 37590
L79880 37614
L79857 37661
" />
</g><path d="M79500 39000
L80500 39000
" />
<text x="79300.000000" y="39250.000000"
textLength="1774.291339" font-size="666.653543" lengthAdjust="spacingAndGlyphs"
text-anchor="end" opacity="0">IO35</text>
<g class="stroked-text"><desc>IO35</desc>
<path d="M77674 39226
L77674 38726
" />
<path d="M78008 38726
L78103 38726
L78150 38750
L78198 38797
L78222 38892
L78222 39059
L78198 39154
L78150 39202
L78103 39226
L78008 39226
L77960 39202
L77912 39154
L77889 39059
L77889 38892
L77912 38797
L77960 38750
L78008 38726
" />
<path d="M78389 38726
L78698 38726
L78531 38916
L78603 38916
L78650 38940
L78674 38964
L78698 39011
L78698 39130
L78674 39178
L78650 39202
L78603 39226
L78460 39226
L78412 39202
L78389 39178
" />
<path d="M79150 38726
L78912 38726
L78889 38964
L78912 38940
L78960 38916
L79079 38916
L79127 38940
L79150 38964
L79174 39011
L79174 39130
L79150 39178
L79127 39202
L79079 39226
L78960 39226
L78912 39202
L78889 39178
" />
</g><text x="80000.000000" y="38900.000000"
textLength="536.181102" font-size="666.653543" lengthAdjust="spacingAndGlyphs"
text-anchor="middle" opacity="0">7</text>
<g class="stroked-text"><desc>7</desc>
<path d="M79833 38376
L80166 38376
L79952 38876
" />
</g><path d="M79500 36000
L80500 36000
" />
<text x="79300.000000" y="36250.000000"
textLength="1774.291339" font-size="666.653543" lengthAdjust="spacingAndGlyphs"
text-anchor="end" opacity="0">IO32</text>
<g class="stroked-text"><desc>IO32</desc>
<path d="M77674 36226
L77674 35726
" />
<path d="M78008 35726
L78103 35726
L78150 35750
L78198 35797
L78222 35892
L78222 36059
L78198 36154
L78150 36202
L78103 36226
L78008 36226
L77960 36202
L77912 36154
L77889 36059
L77889 35892
L77912 35797
L77960 35750
L78008 35726
" />
<path d="M78389 35726
L78698 35726
L78531 35916
L78603 35916
L78650 35940
L78674 35964
L78698 36011
L78698 36130
L78674 36178
L78650 36202
L78603 36226
L78460 36226
L78412 36202
L78389 36178
" />
<path d="M78889 35773
L78912 35750
L78960 35726
L79079 35726
L79127 35750
L79150 35773
L79174 35821
L79174 35869
L79150 35940
L78865 36226
L79174 36226
" />
</g><text x="80000.000000" y="35900.000000"
textLength="536.181102" font-size="666.653543" lengthAdjust="spacingAndGlyphs"
text-anchor="middle" opacity="0">8</text>
<g class="stroked-text"><desc>8</desc>
<path d="M79952 35590
L79904 35566
L79880 35542
L79857 35495
L79857 35471
L79880 35423
L79904 35400
L79952 35376
L80047 35376
L80095 35400
L80119 35423
L80142 35471
L80142 35495
L80119 35542
L80095 35566
L80047 35590
L79952 35590
L79904 35614
L79880 35638
L79857 35685
L79857 35780
L79880 35828
L79904 35852
L79952 35876
L80047 35876
L80095 35852
L80119 35828
L80142 35780
L80142 35685
L80119 35638
L80095 35614
L80047 35590
" />
</g><path d="M79500 37000
L80500 37000
" />
<text x="79300.000000" y="37250.000000"
textLength="1774.291339" font-size="666.653543" lengthAdjust="spacingAndGlyphs"
text-anchor="end" opacity="0">IO33</text>
<g class="stroked-text"><desc>IO33</desc>
<path d="M77674 37226
L77674 36726
" />
<path d="M78008 36726
L78103 36726
L78150 36750
L78198 36797
L78222 36892
L78222 37059
L78198 37154
L78150 37202
L78103 37226
L78008 37226
L77960 37202
L77912 37154
L77889 37059
L77889 36892
L77912 36797
L77960 36750
L78008 36726
" />
<path d="M78389 36726
L78698 36726
L78531 36916
L78603 36916
L78650 36940
L78674 36964
L78698 37011
L78698 37130
L78674 37178
L78650 37202
L78603 37226
L78460 37226
L78412 37202
L78389 37178
" />
<path d="M78865 36726
L79174 36726
L79008 36916
L79079 36916
L79127 36940
L79150 36964
L79174 37011
L79174 37130
L79150 37178
L79127 37202
L79079 37226
L78936 37226
L78889 37202
L78865 37178
" />
</g><text x="80000.000000" y="36900.000000"
textLength="536.181102" font-size="666.653543" lengthAdjust="spacingAndGlyphs"
text-anchor="middle" opacity="0">9</text>
<g class="stroked-text"><desc>9</desc>
<path d="M79904 36876
L80000 36876
L80047 36852
L80071 36828
L80119 36757
L80142 36661
L80142 36471
L80119 36423
L80095 36400
L80047 36376
L79952 36376
L79904 36400
L79880 36423
L79857 36471
L79857 36590
L79880 36638
L79904 36661
L79952 36685
L80047 36685
L80095 36661
L80119 36638
L80142 36590
" />
</g><text x="75802.480315" y="13249.960630"
textLength="1012.362205" font-size="666.653543" lengthAdjust="spacingAndGlyphs"
text-anchor="middle" opacity="0">U?</text>
<g class="stroked-text"><desc>U?</desc>
<path d="M75445 12726
L75445 13130
L75469 13178
L75492 13202
L75540 13226
L75635 13226
L75683 13202
L75707 13178
L75731 13130
L75731 12726
" />
<path d="M76040 13178
L76064 13202
L76040 13226
L76016 13202
L76040 13178
L76040 13226
" />
<path d="M75945 12749
L75992 12726
L76111 12726
L76159 12749
L76183 12797
L76183 12845
L76159 12892
L76135 12916
L76088 12940
L76064 12964
L76040 13011
L76040 13035
" />
</g><text x="79219.133858" y="14249.960630"
textLength="7845.708661" font-size="666.653543" lengthAdjust="spacingAndGlyphs"
text-anchor="middle" opacity="0">ESP32-WROOM-32U</text>
<g class="stroked-text"><desc>ESP32-WROOM-32U</desc>
<path d="M75445 13964
L75611 13964
" />
<path d="M75683 14226
L75445 14226
L75445 13726
L75683 13726
" />
<path d="M75873 14202
L75945 14226
L76064 14226
L76111 14202
L76135 14178
L76159 14130
L76159 14083
L76135 14035
L76111 14011
L76064 13988
L75969 13964
L75921 13940
L75897 13916
L75873 13868
L75873 13821
L75897 13773
L75921 13749
L75969 13726
L76088 13726
L76159 13749
" />
<path d="M76373 14226
L76373 13726
L76564 13726
L76611 13749
L76635 13773
L76659 13821
L76659 13892
L76635 13940
L76611 13964
L76564 13988
L76373 13988
" />
<path d="M76826 13726
L77135 13726
L76969 13916
L77040 13916
L77088 13940
L77111 13964
L77135 14011
L77135 14130
L77111 14178
L77088 14202
L77040 14226
L76897 14226
L76850 14202
L76826 14178
" />
<path d="M77326 13773
L77350 13749
L77397 13726
L77516 13726
L77564 13749
L77588 13773
L77611 13821
L77611 13868
L77588 13940
L77302 14226
L77611 14226
" />
<path d="M77826 14035
L78207 14035
" />
<path d="M78397 13726
L78516 14226
L78611 13868
L78707 14226
L78826 13726
" />
<path d="M79302 14226
L79135 13988
" />
<path d="M79016 14226
L79016 13726
L79207 13726
L79254 13749
L79278 13773
L79302 13821
L79302 13892
L79278 13940
L79254 13964
L79207 13988
L79016 13988
" />
<path d="M79611 13726
L79707 13726
L79754 13749
L79802 13797
L79826 13892
L79826 14059
L79802 14154
L79754 14202
L79707 14226
L79611 14226
L79564 14202
L79516 14154
L79492 14059
L79492 13892
L79516 13797
L79564 13749
L79611 13726
" />
<path d="M80135 13726
L80231 13726
L80278 13749
L80326 13797
L80350 13892
L80350 14059
L80326 14154
L80278 14202
L80231 14226
L80135 14226
L80088 14202
L80040 14154
L80016 14059
L80016 13892
L80040 13797
L80088 13749
L80135 13726
" />
<path d="M80564 14226
L80564 13726
L80731 14083
L80897 13726
L80897 14226
" />
<path d="M81135 14035
L81516 14035
" />
<path d="M81707 13726
L82016 13726
L81850 13916
L81921 13916
L81969 13940
L81992 13964
L82016 14011
L82016 14130
L81992 14178
L81969 14202
L81921 14226
L81778 14226
L81731 14202
L81707 14178
" />
<path d="M82207 13773
L82231 13749
L82278 13726
L82397 13726
L82445 13749
L82469 13773
L82492 13821
L82492 13868
L82469 13940
L82183 14226
L82492 14226
" />
<path d="M82707 13726
L82707 14130
L82731 14178
L82754 14202
L82802 14226
L82897 14226
L82945 14202
L82969 14178
L82992 14130
L82992 13726
" />
</g></g>
</g>
<g style="fill:#000000; fill-opacity:0.0; 
stroke:#000000; stroke-width:60.000000; stroke-opacity:1; 
stroke-linecap:round; stroke-linejoin:round;">
<g >
<path style="fill:#000000; fill-opacity:0.0; 
stroke:#000000; stroke-width:60.000000; stroke-opacity:1; 
stroke-linecap:round; stroke-linejoin:round;fill:none"
d="M 92200.000000,11500.000000
92500.000000,11000.000000
" /> 
<path style="fill:#000000; fill-opacity:0.0; 
stroke:#000000; stroke-width:60.000000; stroke-opacity:1; 
stroke-linecap:round; stroke-linejoin:round;fill:none"
d="M 92500.000000,12000.000000
92500.000000,11000.000000
" /> 
<path style="fill:#000000; fill-opacity:0.0; 
stroke:#000000; stroke-width:60.000000; stroke-opacity:1; 
stroke-linecap:round; stroke-linejoin:round;fill:none"
d="M 92500.000000,11000.000000
92800.000000,11500.000000
" /> 
<text x="92500.000000" y="10249.960630"
textLength="3726.653543" font-size="666.653543" lengthAdjust="spacingAndGlyphs"
text-anchor="middle" opacity="0">+3.3VDAC</text>
<g class="stroked-text"><desc>+3.3VDAC</desc>
<path d="M90785 10035
L91166 10035
" />
<path d="M90976 10226
L90976 9845
" />
<path d="M91357 9726
L91666 9726
L91500 9916
L91571 9916
L91619 9940
L91642 9964
L91666 10011
L91666 10130
L91642 10178
L91619 10202
L91571 10226
L91428 10226
L91380 10202
L91357 10178
" />
<path d="M91880 10178
L91904 10202
L91880 10226
L91857 10202
L91880 10178
L91880 10226
" />
<path d="M92071 9726
L92380 9726
L92214 9916
L92285 9916
L92333 9940
L92357 9964
L92380 10011
L92380 10130
L92357 10178
L92333 10202
L92285 10226
L92142 10226
L92095 10202
L92071 10178
" />
<path d="M92523 9726
L92690 10226
L92857 9726
" />
<path d="M93023 10226
L93023 9726
L93142 9726
L93214 9749
L93261 9797
L93285 9845
L93309 9940
L93309 10011
L93285 10107
L93261 10154
L93214 10202
L93142 10226
L93023 10226
" />
<path d="M93500 10083
L93738 10083
" />
<path d="M93452 10226
L93619 9726
L93785 10226
" />
<path d="M94238 10178
L94214 10202
L94142 10226
L94095 10226
L94023 10202
L93976 10154
L93952 10107
L93928 10011
L93928 9940
L93952 9845
L93976 9797
L94023 9749
L94095 9726
L94142 9726
L94214 9749
L94238 9773
" />
</g></g>
</g>
<g style="fill:#000000; fill-opacity:0.0; 
stroke:#000000; stroke-width:62.519685; stroke-opacity:1; 
stroke-linecap:round; stroke-linejoin:round;">
</g>
<g style="fill:#000000; fill-opacity:0.0; 
stroke:#000000; stroke-width:60.000000; stroke-opacity:1; 
stroke-linecap:round; stroke-linejoin:round;">
<text x="81062.519685" y="17285.748031"
textLength="1869.527559" font-size="666.653543" lengthAdjust="spacingAndGlyphs"
text-anchor="start" opacity="0">dddd</text>
<g class="stroked-text"><desc>dddd</desc>
<path d="M81425 17261
L81425 16761
" />
<path d="M81425 17238
L81378 17261
L81282 17261
L81235 17238
L81211 17214
L81187 17166
L81187 17023
L81211 16976
L81235 16952
L81282 16928
L81378 16928
L81425 16952
" />
<path d="M81878 17261
L81878 16761
" />
<path d="M81878 17238
L81830 17261
L81735 17261
L81687 17238
L81663 17214
L81640 17166
L81640 17023
L81663 16976
L81687 16952
L81735 16928
L81830 16928
L81878 16952
" />
<path d="M82330 17261
L82330 16761
" />
<path d="M82330 17238
L82282 17261
L82187 17261
L82140 17238
L82116 17214
L82092 17166
L82092 17023
L82116 16976
L82140 16952
L82187 16928
L82282 16928
L82330 16952
" />
<path d="M82782 17261
L82782 16761
" />
<path d="M82782 17238
L82735 17261
L82640 17261
L82592 17238
L82568 17214
L82544 17166
L82544 17023
L82568 16976
L82592 16952
L82640 16928
L82735 16928
L82782 16952
" />
</g><path style="fill:#000000; fill-opacity:0.0; 
stroke:#000000; stroke-width:60.000000; stroke-opacity:1; 
stroke-linecap:round; stroke-linejoin:round;fill:none"
d="M 80500.000000,17000.000000
80937.519685,17500.157480
83247.244094,17500.157480
83247.244094,17000.000000
83247.244094,16499.842520
80937.519685,16499.842520
Z" /> 
<path d="M74500 42000
L74500 47500
" />
<path d="M95000 33000
L96000 33000
" />
<path d="M80500 23000
L95000 23000
" />
<path d="M95000 23000
L95000 33000
" />
<path d="M99500 17500
L99500 20000
" />
<path d="M80500 20000
L99500 20000
" />
<path d="M92500 14000
L92500 12000
" />
<path d="M74500 14000
L92500 14000
" />
</g> 
</svg>
